<svg width="1440" height="928" viewBox="0 0 1440 928" fill="none" xmlns="http://www.w3.org/2000/svg">
<g clip-path="url(#clip0_1_63)">
<rect width="1440" height="928" fill="url(#paint0_linear_1_63)"/>
<path fill-rule="evenodd" clip-rule="evenodd" d="M559.374 843.739V876H560.374V843.739H643.376V876H644.376V843.739H727.379V876H728.379V843.739H811.382V876H812.382V843.739H895.385V876H896.385V843.739H979.388V876H980.388V843.739H1063.39V876H1064.39V843.739H1147.39V876H1148.39V843.739H1231.4V876H1232.4V843.739H1315.4V876H1316.4V843.739L1399.4 843.739V876H1400.4V843.739H1483.41V876H1484.41V843.739L1567.41 843.739V876H1568.41V843.739H1640.17V842.739H1568.41V760.348H1640.17V759.348H1568.41V676.957H1640.17V675.957H1568.41V593.565H1640.17V592.565H1568.41V510.174H1640.17V509.174H1568.41V426.783H1640.17V425.783H1568.41V343.392H1640.17V342.392H1568.41V260H1640.17V259H1568.41V176.609H1640.17V175.609H1568.41V93.2177H1640.17V92.2177H1568.41V9.82635H1640.17V8.82635H1568.41V-73.5649H1640.17V-74.5649H1568.41V-156.956L1640.17 -156.956V-157.956L1568.41 -157.956V-240.348L1640.17 -240.348V-241.348L1568.41 -241.348V-323.739L1640.17 -323.739V-324.739L1568.41 -324.739V-357H1567.41V-324.739L1484.4 -324.739V-357H1483.4V-324.739L1400.4 -324.739V-357H1399.4V-324.739L1316.4 -324.739V-357H1315.4V-324.739L1232.4 -324.739V-357H1231.4V-324.739L1148.39 -324.739V-357H1147.39V-324.739L1064.39 -324.739V-357H1063.39V-324.739L980.388 -324.739V-357H979.388V-324.739L896.385 -324.739V-357H895.385V-324.739L812.382 -324.739V-357H811.382V-324.739L728.379 -324.739V-357H727.379V-324.739L644.376 -324.739V-357H643.376V-324.739L560.374 -324.739V-357H559.374V-324.739L484 -324.739V-323.739L559.374 -323.739L559.374 -241.348L484 -241.348V-240.348L559.374 -240.348V-157.957L484 -157.957V-156.957L559.374 -156.957L559.374 -74.5652L484 -74.5652V-73.5652L559.374 -73.5652L559.374 8.82611L484 8.82608V9.82608L559.374 9.82611V92.2174L484 92.2174V93.2174L559.374 93.2174L559.374 175.609H484V176.609H559.374V259H484V260H559.374V342.391H484V343.391H559.374L559.374 425.783H484V426.783H559.374V509.174H484V510.174H559.374L559.374 592.565H484V593.565H559.374L559.374 675.957H484V676.957H559.374V759.348H484V760.348H559.374L559.374 842.739H484V843.739H559.374ZM1567.41 -323.739L1484.4 -323.739V-241.348L1567.41 -241.348V-323.739ZM1567.41 -240.348L1484.4 -240.348V-157.956L1567.41 -157.956V-240.348ZM1567.41 -156.956L1484.4 -156.956V-74.565L1567.41 -74.5649V-156.956ZM1567.41 -73.5649L1484.4 -73.565V8.82632L1567.41 8.82635V-73.5649ZM1567.41 9.82635L1484.4 9.82632V92.2176L1567.41 92.2177V9.82635ZM1567.41 93.2177L1484.4 93.2176V175.609L1567.41 175.609V93.2177ZM1567.41 176.609L1484.4 176.609V259L1567.41 259V176.609ZM1567.41 260L1484.41 260V342.391L1567.41 342.392V260ZM1567.41 343.392L1484.41 343.391V425.783L1567.41 425.783V343.392ZM1567.41 426.783L1484.41 426.783V509.174L1567.41 509.174V426.783ZM1567.41 510.174L1484.41 510.174V592.565L1567.41 592.565V510.174ZM1567.41 593.565L1484.41 593.565V675.957L1567.41 675.957V593.565ZM1567.41 676.957L1484.41 676.957V759.348L1567.41 759.348V676.957ZM1567.41 760.348L1484.41 760.348V842.739L1567.41 842.739V760.348ZM1483.41 760.348V842.739H1400.4V760.348H1483.41ZM1483.41 676.957V759.348H1400.4V676.957H1483.41ZM1483.41 593.565V675.957H1400.4V593.565H1483.41ZM1483.41 510.174V592.565H1400.4V510.174H1483.41ZM1483.41 426.783V509.174H1400.4V426.783H1483.41ZM1483.41 343.391V425.783H1400.4V343.391H1483.41ZM1483.41 260V342.391H1400.4V260H1483.41ZM1483.4 176.609V259H1400.4V176.609H1483.4ZM1483.4 93.2176V175.609H1400.4V93.2176H1483.4ZM1483.4 9.82632V92.2176H1400.4V9.82632H1483.4ZM1483.4 -73.565V8.82632H1400.4V-73.565H1483.4ZM1483.4 -156.956V-74.565H1400.4V-156.956L1483.4 -156.956ZM1483.4 -240.348V-157.956L1400.4 -157.956V-240.348L1483.4 -240.348ZM1483.4 -323.739V-241.348L1400.4 -241.348V-323.739L1483.4 -323.739ZM1399.4 -323.739L1316.4 -323.739V-241.348L1399.4 -241.348V-323.739ZM1399.4 -240.348L1316.4 -240.348V-157.956L1399.4 -157.956V-240.348ZM1399.4 -156.956L1316.4 -156.956V-74.565L1399.4 -74.565V-156.956ZM1399.4 -73.565L1316.4 -73.565V8.82629L1399.4 8.82632V-73.565ZM1399.4 9.82632L1316.4 9.82629V92.2176L1399.4 92.2176V9.82632ZM1399.4 93.2176L1316.4 93.2176V175.609L1399.4 175.609V93.2176ZM1399.4 176.609L1316.4 176.609V259L1399.4 259V176.609ZM1399.4 260L1316.4 260V342.391L1399.4 342.391V260ZM1399.4 343.391L1316.4 343.391V425.783L1399.4 425.783V343.391ZM1399.4 426.783L1316.4 426.783V509.174L1399.4 509.174V426.783ZM1399.4 510.174L1316.4 510.174V592.565L1399.4 592.565V510.174ZM1399.4 593.565L1316.4 593.565V675.957L1399.4 675.957V593.565ZM1399.4 676.957L1316.4 676.957V759.348L1399.4 759.348V676.957ZM1399.4 760.348L1316.4 760.348V842.739L1399.4 842.739V760.348ZM1315.4 760.348V842.739H1232.4V760.348H1315.4ZM1315.4 676.957V759.348H1232.4V676.957H1315.4ZM1315.4 593.565V675.957H1232.4V593.565H1315.4ZM1315.4 510.174V592.565H1232.4V510.174H1315.4ZM1315.4 426.783V509.174H1232.4V426.783H1315.4ZM1315.4 343.391V425.783H1232.4V343.391H1315.4ZM1315.4 260V342.391H1232.4V260H1315.4ZM1315.4 176.609V259H1232.4V176.609H1315.4ZM1315.4 93.2176V175.609H1232.4V93.2176H1315.4ZM1315.4 9.82629V92.2176H1232.4V9.82629H1315.4ZM1315.4 -73.565V8.82629H1232.4V-73.565H1315.4ZM1315.4 -156.956V-74.565H1232.4V-156.956L1315.4 -156.956ZM1315.4 -240.348V-157.956L1232.4 -157.956V-240.348L1315.4 -240.348ZM1315.4 -323.739V-241.348L1232.4 -241.348V-323.739L1315.4 -323.739ZM1231.4 -323.739L1148.39 -323.739V-241.348L1231.4 -241.348V-323.739ZM1231.4 -240.348L1148.39 -240.348V-157.956L1231.4 -157.956V-240.348ZM1231.4 -156.956L1148.39 -156.956V-74.565L1231.4 -74.565V-156.956ZM1231.4 -73.565L1148.39 -73.565V8.82626L1231.4 8.82629V-73.565ZM1231.4 9.82629L1148.39 9.82626V92.2176L1231.4 92.2176V9.82629ZM1231.4 93.2176L1148.39 93.2176V175.609L1231.4 175.609V93.2176ZM1231.4 176.609L1148.39 176.609V259L1231.4 259V176.609ZM1231.4 260L1148.39 260V342.391L1231.4 342.391V260ZM1231.4 343.391L1148.39 343.391V425.783L1231.4 425.783V343.391ZM1231.4 426.783L1148.39 426.783V509.174L1231.4 509.174V426.783ZM1231.4 510.174L1148.39 510.174V592.565L1231.4 592.565V510.174ZM1231.4 593.565L1148.39 593.565V675.957H1231.4V593.565ZM1231.4 676.957H1148.39V759.348H1231.4V676.957ZM1231.4 760.348H1148.39V842.739H1231.4V760.348ZM1147.39 760.348V842.739H1064.39V760.348H1147.39ZM1147.39 676.957V759.348H1064.39V676.957H1147.39ZM1147.39 593.565V675.957H1064.39V593.565H1147.39ZM1147.39 510.174V592.565H1064.39V510.174H1147.39ZM1147.39 426.783V509.174H1064.39V426.783H1147.39ZM1147.39 343.391V425.783H1064.39V343.391H1147.39ZM1147.39 260V342.391H1064.39V260H1147.39ZM1147.39 176.609V259H1064.39V176.609H1147.39ZM1147.39 93.2176V175.609H1064.39V93.2176H1147.39ZM1147.39 9.82626V92.2176H1064.39V9.82626H1147.39ZM1147.39 -73.565V8.82626H1064.39V-73.565H1147.39ZM1147.39 -156.956V-74.565H1064.39V-156.956L1147.39 -156.956ZM1147.39 -240.348V-157.956L1064.39 -157.956V-240.348L1147.39 -240.348ZM1147.39 -323.739V-241.348L1064.39 -241.348V-323.739L1147.39 -323.739ZM1063.39 -323.739L980.388 -323.739V-241.348L1063.39 -241.348V-323.739ZM1063.39 -240.348L980.388 -240.348V-157.956L1063.39 -157.956V-240.348ZM1063.39 -156.956L980.388 -156.956V-74.5651L1063.39 -74.565V-156.956ZM1063.39 -73.565L980.388 -73.5651L980.388 8.82623L1063.39 8.82626V-73.565ZM1063.39 9.82626L980.388 9.82623V92.2175L1063.39 92.2176V9.82626ZM1063.39 93.2176L980.388 93.2175V175.609L1063.39 175.609V93.2176ZM1063.39 176.609L980.388 176.609V259L1063.39 259V176.609ZM1063.39 260L980.388 260V342.391L1063.39 342.391V260ZM1063.39 343.391L980.388 343.391V425.783L1063.39 425.783V343.391ZM1063.39 426.783L980.388 426.783V509.174L1063.39 509.174V426.783ZM1063.39 510.174L980.388 510.174L980.388 592.565L1063.39 592.565V510.174ZM1063.39 593.565L980.388 593.565V675.957H1063.39V593.565ZM1063.39 676.957H980.388V759.348H1063.39V676.957ZM1063.39 760.348H980.388V842.739H1063.39V760.348ZM979.388 760.348V842.739H896.385V760.348H979.388ZM979.388 676.957V759.348H896.385V676.957H979.388ZM979.388 593.565V675.957H896.385V593.565H979.388ZM979.388 510.174L979.388 592.565H896.385L896.385 510.174H979.388ZM979.388 426.783V509.174H896.385V426.783H979.388ZM979.388 343.391V425.783H896.385V343.391H979.388ZM979.388 260V342.391H896.385V260H979.388ZM979.388 176.609V259H896.385V176.609H979.388ZM979.388 93.2175V175.609H896.385V93.2175H979.388ZM979.388 9.82623V92.2175H896.385V9.82623H979.388ZM979.388 -73.5651L979.388 8.82623H896.385L896.385 -73.5651H979.388ZM979.388 -156.956V-74.5651H896.385V-156.956L979.388 -156.956ZM979.388 -240.348V-157.956L896.385 -157.956V-240.348L979.388 -240.348ZM979.388 -323.739V-241.348L896.385 -241.348V-323.739L979.388 -323.739ZM895.385 -323.739L812.382 -323.739V-241.348L895.385 -241.348V-323.739ZM895.385 -240.348L812.382 -240.348V-157.956L895.385 -157.956V-240.348ZM895.385 -156.956L812.382 -156.956V-74.5651L895.385 -74.5651V-156.956ZM895.385 -73.5651L812.382 -73.5651L812.382 8.8262L895.385 8.82623L895.385 -73.5651ZM895.385 9.82623L812.382 9.8262V92.2175L895.385 92.2175V9.82623ZM895.385 93.2175L812.382 93.2175V175.609H895.385V93.2175ZM895.385 176.609H812.382V259H895.385V176.609ZM895.385 260H812.382V342.391H895.385V260ZM895.385 343.391H812.382V425.783H895.385V343.391ZM895.385 426.783H812.382V509.174H895.385V426.783ZM895.385 510.174H812.382L812.382 592.565H895.385L895.385 510.174ZM895.385 593.565H812.382V675.957H895.385V593.565ZM895.385 676.957H812.382V759.348H895.385V676.957ZM895.385 760.348H812.382V842.739H895.385V760.348ZM811.382 760.348V842.739H728.379V760.348H811.382ZM811.382 676.957V759.348H728.379L728.379 676.957H811.382ZM811.382 593.565V675.957H728.379V593.565H811.382ZM811.382 510.174L811.382 592.565H728.379V510.174H811.382ZM811.382 426.783V509.174H728.379V426.783H811.382ZM811.382 343.391V425.783H728.379L728.379 343.391H811.382ZM811.382 260V342.391H728.379V260H811.382ZM811.382 176.609V259H728.379V176.609H811.382ZM811.382 93.2175V175.609H728.379L728.379 93.2175L811.382 93.2175ZM811.382 9.8262V92.2175L728.379 92.2175V9.82617L811.382 9.8262ZM811.382 -73.5651L811.382 8.8262L728.379 8.82617V-73.5651L811.382 -73.5651ZM811.382 -156.956V-74.5651L728.379 -74.5651V-156.956L811.382 -156.956ZM811.382 -240.348V-157.956L728.379 -157.956L728.379 -240.348L811.382 -240.348ZM811.382 -323.739V-241.348L728.379 -241.348V-323.739L811.382 -323.739ZM727.379 -323.739L644.376 -323.739V-241.348L727.379 -241.348V-323.739ZM727.379 -240.348L644.376 -240.348L644.376 -157.956L727.379 -157.956L727.379 -240.348ZM727.379 -156.956L644.376 -156.956V-74.5652L727.379 -74.5651V-156.956ZM727.379 -73.5651L644.376 -73.5652V8.82614L727.379 8.82617V-73.5651ZM727.379 9.82617L644.376 9.82614V92.2174L727.379 92.2175V9.82617ZM727.379 93.2175L644.376 93.2174L644.376 175.609H727.379L727.379 93.2175ZM727.379 176.609H644.376V259H727.379V176.609ZM727.379 260H644.376V342.391H727.379V260ZM727.379 343.391H644.376L644.376 425.783H727.379L727.379 343.391ZM727.379 426.783H644.376V509.174H727.379V426.783ZM727.379 510.174H644.376V592.565H727.379V510.174ZM727.379 593.565H644.376V675.957H727.379V593.565ZM727.379 676.957H644.376L644.376 759.348H727.379L727.379 676.957ZM727.379 760.348H644.376V842.739H727.379V760.348ZM643.376 760.348V842.739H560.374L560.374 760.348H643.376ZM643.376 676.957L643.376 759.348H560.374V676.957H643.376ZM643.376 593.565V675.957H560.374L560.374 593.565H643.376ZM643.376 510.174V592.565H560.374L560.374 510.174H643.376ZM643.376 426.783V509.174H560.374V426.783H643.376ZM643.376 343.391L643.376 425.783H560.374L560.374 343.391H643.376ZM643.376 260V342.391H560.374V260H643.376ZM643.376 176.609V259H560.374V176.609H643.376ZM643.376 93.2174L643.376 175.609H560.374L560.374 93.2174L643.376 93.2174ZM643.376 9.82614V92.2174L560.374 92.2174V9.82611L643.376 9.82614ZM643.376 -73.5652V8.82614L560.374 8.82611L560.374 -73.5652L643.376 -73.5652ZM643.376 -156.956V-74.5652L560.374 -74.5652L560.374 -156.957L643.376 -156.956ZM643.376 -240.348L643.376 -157.956L560.374 -157.957V-240.348L643.376 -240.348ZM643.376 -323.739V-241.348L560.374 -241.348L560.374 -323.739L643.376 -323.739Z" fill="url(#paint1_radial_1_63)"/>
<path fill-rule="evenodd" clip-rule="evenodd" d="M-267.626 843.739V876H-266.626V843.739H-183.624V876H-182.624V843.739H-99.6205V876H-98.6205V843.739H-15.6178V876H-14.6178V843.739H68.385V876H69.385V843.739H152.388V876H153.388V843.739H236.391V876H237.391V843.739H320.394V876H321.394V843.739H404.396V876H405.396V843.739H488.399V876H489.399V843.739L572.402 843.739V876H573.402V843.739H656.405V876H657.405V843.739L740.408 843.739V876H741.408V843.739H813.168V842.739H741.408V760.348H813.168V759.348H741.408V676.957H813.168V675.957H741.408V593.565H813.168V592.565H741.408V510.174H813.168V509.174H741.408V426.783H813.168V425.783H741.408V343.392H813.168V342.392H741.408V260H813.168V259H741.408V176.609H813.168V175.609H741.408V93.2177H813.168V92.2177H741.408V9.82635H813.168V8.82635H741.408V-73.5649H813.168V-74.5649H741.408V-156.956L813.168 -156.956V-157.956L741.408 -157.956V-240.348L813.168 -240.348V-241.348L741.408 -241.348V-323.739L813.168 -323.739V-324.739L741.408 -324.739V-357H740.408V-324.739L657.405 -324.739V-357H656.405V-324.739L573.402 -324.739V-357H572.402V-324.739L489.399 -324.739V-357H488.399V-324.739L405.396 -324.739V-357H404.396V-324.739L321.394 -324.739V-357H320.394V-324.739L237.391 -324.739V-357H236.391V-324.739L153.388 -324.739V-357H152.388V-324.739L69.385 -324.739V-357H68.385V-324.739L-14.6179 -324.739V-357H-15.6179V-324.739L-98.6206 -324.739V-357H-99.6206V-324.739L-182.624 -324.739V-357H-183.624V-324.739L-266.626 -324.739V-357H-267.626V-324.739L-343 -324.739V-323.739L-267.626 -323.739L-267.626 -241.348L-343 -241.348V-240.348L-267.626 -240.348V-157.957L-343 -157.957V-156.957L-267.626 -156.957L-267.626 -74.5652L-343 -74.5652V-73.5652L-267.626 -73.5652L-267.626 8.82611L-343 8.82608V9.82608L-267.626 9.82611V92.2174L-343 92.2174V93.2174L-267.626 93.2174L-267.626 175.609H-343V176.609H-267.626V259H-343V260H-267.626V342.391H-343V343.391H-267.626L-267.626 425.783H-343V426.783H-267.626V509.174H-343V510.174H-267.626L-267.626 592.565H-343V593.565H-267.626L-267.626 675.957H-343V676.957H-267.626V759.348H-343V760.348H-267.626L-267.626 842.739H-343V843.739H-267.626ZM740.408 -323.739L657.405 -323.739V-241.348L740.408 -241.348V-323.739ZM740.408 -240.348L657.405 -240.348V-157.956L740.408 -157.956V-240.348ZM740.408 -156.956L657.405 -156.956V-74.565L740.408 -74.5649V-156.956ZM740.408 -73.5649L657.405 -73.565V8.82632L740.408 8.82635V-73.5649ZM740.408 9.82635L657.405 9.82632V92.2176L740.408 92.2177V9.82635ZM740.408 93.2177L657.405 93.2176V175.609L740.408 175.609V93.2177ZM740.408 176.609L657.405 176.609V259L740.408 259V176.609ZM740.408 260L657.405 260V342.391L740.408 342.392V260ZM740.408 343.392L657.405 343.391V425.783L740.408 425.783V343.392ZM740.408 426.783L657.405 426.783V509.174L740.408 509.174V426.783ZM740.408 510.174L657.405 510.174V592.565L740.408 592.565V510.174ZM740.408 593.565L657.405 593.565V675.957L740.408 675.957V593.565ZM740.408 676.957L657.405 676.957V759.348L740.408 759.348V676.957ZM740.408 760.348L657.405 760.348V842.739L740.408 842.739V760.348ZM656.405 760.348V842.739H573.402V760.348H656.405ZM656.405 676.957V759.348H573.402V676.957H656.405ZM656.405 593.565V675.957H573.402V593.565H656.405ZM656.405 510.174V592.565H573.402V510.174H656.405ZM656.405 426.783V509.174H573.402V426.783H656.405ZM656.405 343.391V425.783H573.402V343.391H656.405ZM656.405 260V342.391H573.402V260H656.405ZM656.405 176.609V259H573.402V176.609H656.405ZM656.405 93.2176V175.609H573.402V93.2176H656.405ZM656.405 9.82632V92.2176H573.402V9.82632H656.405ZM656.405 -73.565V8.82632H573.402V-73.565H656.405ZM656.405 -156.956V-74.565H573.402V-156.956L656.405 -156.956ZM656.405 -240.348V-157.956L573.402 -157.956V-240.348L656.405 -240.348ZM656.405 -323.739V-241.348L573.402 -241.348V-323.739L656.405 -323.739ZM572.402 -323.739L489.399 -323.739V-241.348L572.402 -241.348V-323.739ZM572.402 -240.348L489.399 -240.348V-157.956L572.402 -157.956V-240.348ZM572.402 -156.956L489.399 -156.956V-74.565L572.402 -74.565V-156.956ZM572.402 -73.565L489.399 -73.565V8.82629L572.402 8.82632V-73.565ZM572.402 9.82632L489.399 9.82629V92.2176L572.402 92.2176V9.82632ZM572.402 93.2176L489.399 93.2176V175.609L572.402 175.609V93.2176ZM572.402 176.609L489.399 176.609V259L572.402 259V176.609ZM572.402 260L489.399 260V342.391L572.402 342.391V260ZM572.402 343.391L489.399 343.391V425.783L572.402 425.783V343.391ZM572.402 426.783L489.399 426.783V509.174L572.402 509.174V426.783ZM572.402 510.174L489.399 510.174V592.565L572.402 592.565V510.174ZM572.402 593.565L489.399 593.565V675.957L572.402 675.957V593.565ZM572.402 676.957L489.399 676.957V759.348L572.402 759.348V676.957ZM572.402 760.348L489.399 760.348V842.739L572.402 842.739V760.348ZM488.399 760.348V842.739H405.396V760.348H488.399ZM488.399 676.957V759.348H405.396V676.957H488.399ZM488.399 593.565V675.957H405.396V593.565H488.399ZM488.399 510.174V592.565H405.396V510.174H488.399ZM488.399 426.783V509.174H405.396V426.783H488.399ZM488.399 343.391V425.783H405.396V343.391H488.399ZM488.399 260V342.391H405.396V260H488.399ZM488.399 176.609V259H405.396V176.609H488.399ZM488.399 93.2176V175.609H405.396V93.2176H488.399ZM488.399 9.82629V92.2176H405.396V9.82629H488.399ZM488.399 -73.565V8.82629H405.396V-73.565H488.399ZM488.399 -156.956V-74.565H405.396V-156.956L488.399 -156.956ZM488.399 -240.348V-157.956L405.396 -157.956V-240.348L488.399 -240.348ZM488.399 -323.739V-241.348L405.396 -241.348V-323.739L488.399 -323.739ZM404.396 -323.739L321.394 -323.739V-241.348L404.396 -241.348V-323.739ZM404.396 -240.348L321.394 -240.348V-157.956L404.396 -157.956V-240.348ZM404.396 -156.956L321.394 -156.956V-74.565L404.396 -74.565V-156.956ZM404.396 -73.565L321.394 -73.565V8.82626L404.396 8.82629V-73.565ZM404.396 9.82629L321.394 9.82626V92.2176L404.396 92.2176V9.82629ZM404.396 93.2176L321.394 93.2176V175.609L404.396 175.609V93.2176ZM404.396 176.609L321.394 176.609V259L404.396 259V176.609ZM404.396 260L321.394 260V342.391L404.396 342.391V260ZM404.396 343.391L321.394 343.391V425.783L404.396 425.783V343.391ZM404.396 426.783L321.394 426.783V509.174L404.396 509.174V426.783ZM404.396 510.174L321.394 510.174V592.565L404.396 592.565V510.174ZM404.396 593.565L321.394 593.565V675.957H404.396V593.565ZM404.396 676.957H321.394V759.348H404.396V676.957ZM404.396 760.348H321.394V842.739H404.396V760.348ZM320.394 760.348V842.739H237.391V760.348H320.394ZM320.394 676.957V759.348H237.391V676.957H320.394ZM320.394 593.565V675.957H237.391V593.565H320.394ZM320.394 510.174V592.565H237.391V510.174H320.394ZM320.394 426.783V509.174H237.391V426.783H320.394ZM320.394 343.391V425.783H237.391V343.391H320.394ZM320.394 260V342.391H237.391V260H320.394ZM320.394 176.609V259H237.391V176.609H320.394ZM320.394 93.2176V175.609H237.391V93.2176H320.394ZM320.394 9.82626V92.2176H237.391V9.82626H320.394ZM320.394 -73.565V8.82626H237.391V-73.565H320.394ZM320.394 -156.956V-74.565H237.391V-156.956L320.394 -156.956ZM320.394 -240.348V-157.956L237.391 -157.956V-240.348L320.394 -240.348ZM320.394 -323.739V-241.348L237.391 -241.348V-323.739L320.394 -323.739ZM236.391 -323.739L153.388 -323.739V-241.348L236.391 -241.348V-323.739ZM236.391 -240.348L153.388 -240.348V-157.956L236.391 -157.956V-240.348ZM236.391 -156.956L153.388 -156.956V-74.5651L236.391 -74.565V-156.956ZM236.391 -73.565L153.388 -73.5651L153.388 8.82623L236.391 8.82626V-73.565ZM236.391 9.82626L153.388 9.82623V92.2175L236.391 92.2176V9.82626ZM236.391 93.2176L153.388 93.2175V175.609L236.391 175.609V93.2176ZM236.391 176.609L153.388 176.609V259L236.391 259V176.609ZM236.391 260L153.388 260V342.391L236.391 342.391V260ZM236.391 343.391L153.388 343.391V425.783L236.391 425.783V343.391ZM236.391 426.783L153.388 426.783V509.174L236.391 509.174V426.783ZM236.391 510.174L153.388 510.174L153.388 592.565L236.391 592.565V510.174ZM236.391 593.565L153.388 593.565V675.957H236.391V593.565ZM236.391 676.957H153.388V759.348H236.391V676.957ZM236.391 760.348H153.388V842.739H236.391V760.348ZM152.388 760.348V842.739H69.385V760.348H152.388ZM152.388 676.957V759.348H69.385V676.957H152.388ZM152.388 593.565V675.957H69.385V593.565H152.388ZM152.388 510.174L152.388 592.565H69.385L69.385 510.174H152.388ZM152.388 426.783V509.174H69.385V426.783H152.388ZM152.388 343.391V425.783H69.385V343.391H152.388ZM152.388 260V342.391H69.385V260H152.388ZM152.388 176.609V259H69.385V176.609H152.388ZM152.388 93.2175V175.609H69.385V93.2175H152.388ZM152.388 9.82623V92.2175H69.385V9.82623H152.388ZM152.388 -73.5651L152.388 8.82623H69.385L69.385 -73.5651H152.388ZM152.388 -156.956V-74.5651H69.385V-156.956L152.388 -156.956ZM152.388 -240.348V-157.956L69.385 -157.956V-240.348L152.388 -240.348ZM152.388 -323.739V-241.348L69.385 -241.348V-323.739L152.388 -323.739ZM68.385 -323.739L-14.6179 -323.739V-241.348L68.385 -241.348V-323.739ZM68.385 -240.348L-14.6179 -240.348V-157.956L68.385 -157.956V-240.348ZM68.385 -156.956L-14.6179 -156.956V-74.5651L68.385 -74.5651V-156.956ZM68.385 -73.5651L-14.6179 -73.5651L-14.6179 8.8262L68.385 8.82623L68.385 -73.5651ZM68.385 9.82623L-14.6179 9.8262V92.2175L68.385 92.2175V9.82623ZM68.385 93.2175L-14.6179 93.2175V175.609H68.385V93.2175ZM68.385 176.609H-14.6179V259H68.385V176.609ZM68.385 260H-14.6179V342.391H68.385V260ZM68.385 343.391H-14.6179V425.783H68.385V343.391ZM68.385 426.783H-14.6179V509.174H68.385V426.783ZM68.385 510.174H-14.6179L-14.6178 592.565H68.385L68.385 510.174ZM68.385 593.565H-14.6178V675.957H68.385V593.565ZM68.385 676.957H-14.6178V759.348H68.385V676.957ZM68.385 760.348H-14.6178V842.739H68.385V760.348ZM-15.6178 760.348V842.739H-98.6205V760.348H-15.6178ZM-15.6178 676.957V759.348H-98.6205L-98.6206 676.957H-15.6178ZM-15.6178 593.565V675.957H-98.6206V593.565H-15.6178ZM-15.6179 510.174L-15.6178 592.565H-98.6206V510.174H-15.6179ZM-15.6179 426.783V509.174H-98.6206V426.783H-15.6179ZM-15.6179 343.391V425.783H-98.6206L-98.6206 343.391H-15.6179ZM-15.6179 260V342.391H-98.6206V260H-15.6179ZM-15.6179 176.609V259H-98.6206V176.609H-15.6179ZM-15.6179 93.2175V175.609H-98.6206L-98.6206 93.2175L-15.6179 93.2175ZM-15.6179 9.8262V92.2175L-98.6206 92.2175V9.82617L-15.6179 9.8262ZM-15.6179 -73.5651L-15.6179 8.8262L-98.6206 8.82617V-73.5651L-15.6179 -73.5651ZM-15.6179 -156.956V-74.5651L-98.6206 -74.5651V-156.956L-15.6179 -156.956ZM-15.6179 -240.348V-157.956L-98.6206 -157.956L-98.6206 -240.348L-15.6179 -240.348ZM-15.6179 -323.739V-241.348L-98.6206 -241.348V-323.739L-15.6179 -323.739ZM-99.6206 -323.739L-182.624 -323.739V-241.348L-99.6206 -241.348V-323.739ZM-99.6206 -240.348L-182.624 -240.348L-182.624 -157.956L-99.6206 -157.956L-99.6206 -240.348ZM-99.6206 -156.956L-182.624 -156.956V-74.5652L-99.6206 -74.5651V-156.956ZM-99.6206 -73.5651L-182.624 -73.5652V8.82614L-99.6206 8.82617V-73.5651ZM-99.6206 9.82617L-182.624 9.82614V92.2174L-99.6206 92.2175V9.82617ZM-99.6206 93.2175L-182.624 93.2174L-182.624 175.609H-99.6206L-99.6206 93.2175ZM-99.6206 176.609H-182.624V259H-99.6206V176.609ZM-99.6206 260H-182.624V342.391H-99.6206V260ZM-99.6206 343.391H-182.624L-182.624 425.783H-99.6206L-99.6206 343.391ZM-99.6206 426.783H-182.624V509.174H-99.6206V426.783ZM-99.6206 510.174H-182.624V592.565H-99.6206V510.174ZM-99.6206 593.565H-182.624V675.957H-99.6206V593.565ZM-99.6206 676.957H-182.624L-182.624 759.348H-99.6205L-99.6206 676.957ZM-99.6205 760.348H-182.624V842.739H-99.6205V760.348ZM-183.624 760.348V842.739H-266.626L-266.626 760.348H-183.624ZM-183.624 676.957L-183.624 759.348H-266.626V676.957H-183.624ZM-183.624 593.565V675.957H-266.626L-266.626 593.565H-183.624ZM-183.624 510.174V592.565H-266.626L-266.626 510.174H-183.624ZM-183.624 426.783V509.174H-266.626V426.783H-183.624ZM-183.624 343.391L-183.624 425.783H-266.626L-266.626 343.391H-183.624ZM-183.624 260V342.391H-266.626V260H-183.624ZM-183.624 176.609V259H-266.626V176.609H-183.624ZM-183.624 93.2174L-183.624 175.609H-266.626L-266.626 93.2174L-183.624 93.2174ZM-183.624 9.82614V92.2174L-266.626 92.2174V9.82611L-183.624 9.82614ZM-183.624 -73.5652V8.82614L-266.626 8.82611L-266.626 -73.5652L-183.624 -73.5652ZM-183.624 -156.956V-74.5652L-266.626 -74.5652L-266.626 -156.957L-183.624 -156.956ZM-183.624 -240.348L-183.624 -157.956L-266.626 -157.957V-240.348L-183.624 -240.348ZM-183.624 -323.739V-241.348L-266.626 -241.348L-266.626 -323.739L-183.624 -323.739Z" fill="url(#paint2_radial_1_63)"/>
<mask id="mask0_1_63" style="mask-type:alpha" maskUnits="userSpaceOnUse" x="1232" y="9" width="166" height="84">
<rect width="166" height="83.9396" transform="matrix(1 0 0 -1 1232 93)" fill="#1B6DEF"/>
</mask>
<g mask="url(#mask0_1_63)">
<circle cx="83" cy="83" r="83" transform="matrix(1 0 0 -1 1232 175.687)" fill="#D2E2FF"/>
</g>
<circle cx="1314.5" cy="133.5" r="12.5" fill="#FF9C09"/>
<rect x="1316.25" y="332" width="20.1557" height="20.1557" transform="rotate(45 1316.25 332)" fill="white"/>
<rect x="71.2522" y="80" width="20.1557" height="20.1557" transform="rotate(45 71.2522 80)" fill="#B8D0F8"/>
<rect x="776.248" y="47" width="20.1494" height="20.1494" transform="rotate(45 776.248 47)" fill="#B8D0F8"/>
<rect x="409.248" y="715" width="14.674" height="14.674" transform="rotate(45 409.248 715)" fill="#B8D0F8"/>
<path fill-rule="evenodd" clip-rule="evenodd" d="M1357 509H1315.5V550.504V592.743H1398.5V550.504V509H1357ZM1357 509C1379.92 509 1398.5 527.582 1398.5 550.504C1398.5 573.427 1379.92 592.009 1357 592.009C1334.08 592.009 1315.5 573.427 1315.5 550.504C1315.5 527.582 1334.08 509 1357 509Z" fill="#D2E2FF"/>
<circle cx="-0.5" cy="633.5" r="41.5" fill="#D2E2FF"/>
</g>
<defs>
<linearGradient id="paint0_linear_1_63" x1="720" y1="0" x2="720" y2="928" gradientUnits="userSpaceOnUse">
<stop stop-color="#E9F1FF"/>
<stop offset="1" stop-color="#F9FBFF"/>
</linearGradient>
<radialGradient id="paint1_radial_1_63" cx="0" cy="0" r="1" gradientUnits="userSpaceOnUse" gradientTransform="translate(900 97) rotate(9.78584) scale(567.761 542.361)">
<stop stop-color="#CDDFFF"/>
<stop offset="1" stop-color="#CFE0FD" stop-opacity="0"/>
</radialGradient>
<radialGradient id="paint2_radial_1_63" cx="0" cy="0" r="1" gradientUnits="userSpaceOnUse" gradientTransform="translate(73 97) rotate(9.78584) scale(567.761 542.361)">
<stop stop-color="#CDDFFF"/>
<stop offset="1" stop-color="#CFE0FD" stop-opacity="0"/>
</radialGradient>
<clipPath id="clip0_1_63">
<rect width="1440" height="928" fill="white"/>
</clipPath>
</defs>
</svg>
