<svg width="30" height="29" viewBox="0 0 30 29" fill="none" xmlns="http://www.w3.org/2000/svg">
<path fill-rule="evenodd" clip-rule="evenodd" d="M8.05205 0.0367432H21.4515C26.3312 0.0367432 29.086 2.80444 29.1003 7.68413V21.085C29.1003 25.9633 26.3312 28.7324 21.4515 28.7324H8.05205C3.17236 28.7324 0.404663 25.9633 0.404663 21.085V7.68413C0.404663 2.80444 3.17236 0.0367432 8.05205 0.0367432ZM14.8228 22.7924C15.4412 22.7924 15.9563 22.3332 16.0137 21.7163V7.09583C16.0711 6.65105 15.8573 6.20483 15.4699 5.96235C15.0667 5.71844 14.5789 5.71844 14.193 5.96235C13.8041 6.20483 13.5904 6.65105 13.632 7.09583V21.7163C13.7051 22.3332 14.2202 22.7924 14.8228 22.7924ZM21.4242 22.7923C22.0268 22.7923 22.5419 22.3332 22.615 21.7162V17.0101C22.6566 16.5496 22.4429 16.1206 22.054 15.8767C21.6681 15.6327 21.1802 15.6327 20.7785 15.8767C20.3897 16.1206 20.1759 16.5496 20.2333 17.0101V21.7162C20.2907 22.3332 20.8058 22.7923 21.4242 22.7923ZM9.32741 21.7162C9.27002 22.3332 8.75494 22.7923 8.13654 22.7923C7.51959 22.7923 7.00307 22.3332 6.94711 21.7162V11.8019C6.90407 11.3557 7.11785 10.9123 7.50668 10.6684C7.89263 10.4245 8.38189 10.4245 8.76928 10.6684C9.15524 10.9123 9.37189 11.3557 9.32741 11.8019V21.7162Z" fill="white"/>
</svg>
