<svg width="146" height="146" viewBox="0 0 146 146" fill="none" xmlns="http://www.w3.org/2000/svg">
<rect width="146" height="146" rx="5" fill="white"/>
<path d="M72.5 17L74.9481 22.1304L80.584 22.8734L76.4612 26.7871L77.4962 32.3766L72.5 29.665L67.5038 32.3766L68.5388 26.7871L64.416 22.8734L70.0519 22.1304L72.5 17Z" fill="#77ABFF"/>
<path d="M73.5 50L80.8297 61.4116L93.9477 64.8561L85.3597 75.3534L86.1374 88.8939L73.5 83.97L60.8626 88.8939L61.6403 75.3534L53.0523 64.8561L66.1703 61.4116L73.5 50Z" fill="#005DF2"/>
<path d="M120.5 63L122.948 68.1304L128.584 68.8734L124.461 72.7871L125.496 78.3766L120.5 75.665L115.504 78.3766L116.539 72.7871L112.416 68.8734L118.052 68.1304L120.5 63Z" fill="#77ABFF"/>
<path d="M72.5 128L74.9481 122.87L80.584 122.127L76.4612 118.213L77.4962 112.623L72.5 115.335L67.5038 112.623L68.5388 118.213L64.416 122.127L70.0519 122.87L72.5 128Z" fill="#77ABFF"/>
<path d="M124.621 92.6102L120.299 88.9176L121.04 83.2815L116.192 86.2509L111.061 83.8045L112.387 89.3322L108.475 93.4564L114.142 93.9033L116.855 98.8986L119.031 93.647L124.621 92.6102Z" fill="#77ABFF"/>
<path d="M112.3 111.563L110.977 106.034L114.891 101.912L109.224 101.462L106.514 96.4658L104.335 101.716L98.7451 102.75L103.065 106.445L102.322 112.081L107.17 109.114L112.3 111.563Z" fill="#77ABFF"/>
<path d="M93.6103 123.621L94.6471 118.031L99.8987 115.855L94.9034 113.142L94.4564 107.475L90.3323 111.387L84.8046 110.061L87.251 115.192L84.2816 120.04L89.9177 119.299L93.6103 123.621Z" fill="#77ABFF"/>
<path d="M124.621 50.2104L120.299 53.9029L121.04 59.539L116.192 56.5696L111.061 59.0161L112.387 53.4883L108.475 49.3642L114.142 48.9173L116.855 43.922L119.031 49.1735L124.621 50.2104Z" fill="#77ABFF"/>
<path d="M112.3 31.2579L110.977 36.7863L114.891 40.9085L109.224 41.3582L106.514 46.3548L104.335 41.1043L98.7451 40.0701L103.065 36.3755L102.322 30.7397L107.17 33.7068L112.3 31.2579Z" fill="#77ABFF"/>
<path d="M93.6103 19.2L94.6471 24.7892L99.8987 26.9655L94.9034 29.6788L94.4564 35.3458L90.3323 31.4334L84.8046 32.7596L87.251 27.6283L84.2816 22.7809L89.9177 23.522L93.6103 19.2Z" fill="#77ABFF"/>
<path d="M26.5 63L24.0519 68.1304L18.416 68.8734L22.5388 72.7871L21.5038 78.3766L26.5 75.665L31.4962 78.3766L30.4612 72.7871L34.584 68.8734L28.9481 68.1304L26.5 63Z" fill="#77ABFF"/>
<path d="M22.3794 92.6102L26.7014 88.9176L25.9603 83.2815L30.8077 86.2509L35.939 83.8045L34.6128 89.3322L38.5252 93.4564L32.8582 93.9033L30.1449 98.8986L27.9686 93.647L22.3794 92.6102Z" fill="#77ABFF"/>
<path d="M34.6996 111.563L36.023 106.034L32.1087 101.912L37.7755 101.462L40.4864 96.4658L42.6652 101.716L48.2549 102.75L43.9347 106.445L44.6785 112.081L39.8296 109.114L34.6996 111.563Z" fill="#77ABFF"/>
<path d="M53.3897 123.621L52.3529 118.031L47.1013 115.855L52.0966 113.142L52.5436 107.475L56.6677 111.387L62.1954 110.061L59.749 115.192L62.7184 120.04L57.0823 119.299L53.3897 123.621Z" fill="#77ABFF"/>
<path d="M22.3794 50.2104L26.7014 53.9029L25.9603 59.539L30.8077 56.5696L35.939 59.0161L34.6128 53.4883L38.5252 49.3642L32.8582 48.9173L30.1449 43.922L27.9686 49.1735L22.3794 50.2104Z" fill="#77ABFF"/>
<path d="M34.6996 31.2579L36.023 36.7863L32.1087 40.9085L37.7755 41.3582L40.4864 46.3548L42.6652 41.1043L48.2549 40.0701L43.9347 36.3755L44.6785 30.7397L39.8296 33.7068L34.6996 31.2579Z" fill="#77ABFF"/>
<path d="M53.3897 19.2L52.3529 24.7892L47.1013 26.9655L52.0966 29.6788L52.5436 35.3458L56.6677 31.4334L62.1954 32.7596L59.749 27.6283L62.7184 22.7809L57.0823 23.522L53.3897 19.2Z" fill="#77ABFF"/>
</svg>
