<svg width="29" height="21" viewBox="0 0 29 21" fill="none" xmlns="http://www.w3.org/2000/svg">
<path fill-rule="evenodd" clip-rule="evenodd" d="M25.4207 1.34464C26.607 1.66416 27.5425 2.59947 27.8618 3.78604C28.4552 5.95335 28.4324 10.471 28.4324 10.471C28.4324 10.471 28.4324 14.9656 27.8621 17.1331C27.5425 18.3194 26.6072 19.255 25.4207 19.5743C23.2531 20.1448 14.5833 20.1448 14.5833 20.1448C14.5833 20.1448 5.93601 20.1448 3.74588 19.5516C2.55931 19.2321 1.624 18.2966 1.30449 17.1103C0.734131 14.9656 0.734131 10.4481 0.734131 10.4481C0.734131 10.4481 0.734131 5.95335 1.30449 3.78604C1.62379 2.59968 2.58213 1.64134 3.74567 1.32203C5.91319 0.751465 14.5831 0.751465 14.5831 0.751465C14.5831 0.751465 23.2531 0.751465 25.4207 1.34464ZM19.0323 10.4482L11.8226 14.6007V6.2957L19.0323 10.4482Z" fill="#454A6D"/>
</svg>
