<svg width="65" height="56" viewBox="0 0 65 56" fill="none" xmlns="http://www.w3.org/2000/svg">
<path d="M55.8771 24.3947C55.8771 37.8679 44.7663 48.7893 31.0617 48.7893C17.3571 48.7893 6.24634 37.8679 6.24634 24.3947C6.24634 10.9215 17.3571 2.10222e-05 31.0617 2.10222e-05C34.415 -0.00431406 37.7342 0.66186 40.8174 1.95804L37.1953 9.97973C34.0474 8.68488 30.5592 8.42028 27.2465 9.22506C23.9338 10.0298 20.9725 11.8613 18.8005 14.4485C16.6285 17.0358 15.3612 20.2415 15.1859 23.5915C15.0106 26.9416 15.9367 30.2582 17.8272 33.0509C19.7176 35.8435 22.4722 37.964 25.6834 39.0986C28.8947 40.2333 32.3921 40.3219 35.6585 39.3514C38.9249 38.3809 41.7869 36.4027 43.8213 33.7095C45.8556 31.0163 46.9542 27.751 46.9548 24.3965C46.9548 24.3403 46.9548 24.2851 46.9548 24.2299L35.9508 30.8579L31.5299 24.0725L44.4826 16.4751L44.7776 16.5C44.7495 16.4503 44.7195 16.4024 44.6895 16.3536L52.3533 11.8577C52.79 12.5713 53.1886 13.3069 53.5472 14.0615C54.33 15.7017 54.9231 17.4232 55.3152 19.1935C55.6902 20.9027 55.8785 22.6462 55.8771 24.3947V24.3947Z" fill="#005DF2"/>
<path d="M63.6766 10.856C60.6079 5.02247 43.976 7.48218 26.5266 16.3508C22.6159 18.3299 18.844 20.5635 15.236 23.0367C15.1967 23.4841 15.1771 23.9367 15.1771 24.3946C15.1768 25.0978 15.2247 25.8002 15.3203 26.4971C18.8553 23.4059 23.5553 20.2521 28.9828 17.4941C42.5976 10.5743 55.6298 8.76083 58.0917 13.4437C59.1218 15.3943 58.146 18.1652 55.6785 21.2352C53.5069 23.9361 50.1779 26.8672 46.0333 29.6748C43.4256 31.4309 40.7083 33.0245 37.8976 34.4461C33.8298 36.5136 29.8144 38.1283 26.1173 39.244C20.7095 40.8807 15.9833 41.4625 12.7714 40.8743C10.8283 40.5189 9.44049 39.7356 8.78968 38.4983C8.27089 37.5115 8.26246 36.3148 8.70165 34.9763C7.88681 33.3153 7.26787 31.568 6.85689 29.7687C1.4256 34.9791 -1.15145 39.8469 0.489173 42.9704C2.31708 46.4455 8.95917 46.9775 17.7195 44.9643C22.1797 43.9397 27.1886 42.2551 32.3914 39.9639C34.1238 39.2016 35.8718 38.3731 37.6354 37.4784C39.5938 36.4836 41.4748 35.4544 43.2783 34.3908C48.1965 31.4957 52.4759 28.4072 55.8583 25.3998C62.2691 19.6905 65.4595 14.2455 63.6766 10.856Z" fill="#F89F1C"/>
<path d="M20.9999 36.5L33.9693 39.2515L15.2004 56L16.5152 45.2277L21.4811 43.8773L20.9999 36.5Z" fill="white"/>
<path d="M18.7345 41.5934L13.7817 35.2029L29.8789 40.2236L17.6782 51.7231L18.6568 44.0273L18.7345 41.5934Z" fill="#F89F1C"/>
<path d="M64.1409 13.4595C64.1409 30.162 28.3816 44.3753 28.1025 44.4821L33.9646 39.2515C35.1801 38.6906 36.4024 38.0984 37.6316 37.4749C52.7868 29.7763 63.5688 19.7781 64.1409 13.4595Z" fill="white"/>
</svg>
