<svg width="216" height="216" viewBox="0 0 216 216" fill="none" xmlns="http://www.w3.org/2000/svg">
<rect width="216" height="216" rx="10" fill="#F0F6FF"/>
<path d="M172.475 97.8395C172.475 97.8395 165.785 98.4962 165.126 96.511C164.468 94.5258 162.286 93.7984 157.878 94.5157C153.47 95.233 155.199 93.4499 153.676 92.8285C152.66 92.4523 151.566 92.3394 150.495 92.5002C150.495 92.5002 155.018 84.4989 139.437 87.7974C139.437 87.7974 133.26 85.8223 131.219 89.722C129.178 93.6216 130.048 94.152 124.303 95.7533C118.558 97.3546 122.906 100.83 122.906 100.83C122.906 100.83 124.75 102.042 122.544 103.356C120.337 104.669 119.392 108.447 120.407 110.756C121.423 113.064 124.454 118.237 126.6 119.227C128.746 120.217 134.964 120.975 136.265 119.404C137.567 117.833 138.678 117.59 140.332 119.181C141.985 120.773 147.509 119.813 146.866 121.343C146.222 122.874 143.347 126.243 145.579 130.355C147.811 134.467 149.379 137.664 146.775 139.862C144.172 142.059 144.302 144.913 146.64 147.413C146.64 147.413 144.805 152.697 146.499 154.99C148.193 157.284 147.891 160.33 147.268 161.865C146.645 163.401 147.303 162.547 147.303 162.547C147.303 162.547 146.831 164.911 148.097 163.608C149.364 162.305 177.129 137.735 172.475 97.8395Z" fill="#B6D2FF"/>
<path d="M140.56 86.6667C144.192 85.8321 146.028 81.4656 146.028 81.4656C146.028 81.4656 149.676 83.3588 151.098 80.9567C151.098 80.9567 152.612 85.4046 154.836 86C154.836 86 152.758 86.3766 153.131 88.4733C153.505 90.57 159.599 89.5471 158.277 85.542C156.955 81.5369 150.796 82.1425 154.483 79.944C158.171 77.7455 159.851 84.0153 159.886 85.6336C159.922 87.2519 158.56 91.1654 161.738 89.7048C164.916 88.2443 164.235 83.5267 165.239 85.9847C166.243 88.4427 164.361 91.1756 167.292 91.4606C168.541 91.5379 169.781 91.7183 171 92C171 92 165.955 72.3308 155.159 60C155.159 60 155.084 61.486 152.359 61.6336C149.635 61.7812 147.95 65.084 149.837 67.1247C151.724 69.1654 154.564 68.0865 154.488 69.5725C154.413 71.0585 153.898 71.8015 151.744 70.8092C149.59 69.8168 148.213 70.0254 147.658 71.9898C147.103 73.9542 146.22 75.4606 144.706 74.6972C143.193 73.9338 139.662 75.2061 141.337 78.4326C141.337 78.4326 142.149 81.2723 140.222 80.5852C138.295 79.8982 133.285 78.0814 133.013 82.8092C132.74 87.5369 136.927 87.5064 140.56 86.6667Z" fill="#B6D2FF"/>
<path d="M109.91 52.7749C109.748 51.8718 109.392 51.0144 108.866 50.2615C108.341 49.5085 107.658 48.878 106.865 48.4131C104.09 46.7066 97.0602 45.308 96.4082 49.0097C95.7562 52.7114 92.9324 50.3447 92.9324 50.3447C93.463 50.0535 93.9189 49.6437 94.2642 49.1474C94.6096 48.6511 94.835 48.0818 94.9228 47.4841C95.2169 45.4352 89.7065 44.511 89.5742 46.3252C89.4418 48.1393 90.7655 48.9852 89.28 49.2933C87.7946 49.6014 86.4121 50.061 84.554 50.1882C82.696 50.3153 82.4999 48.0611 82.4999 48.0611C83.6519 48.1641 84.8131 48.0665 85.9316 47.7726C87.9759 47.2836 89.1722 45.3521 86.9121 44.6381C84.6521 43.9242 87.0543 46.3594 82.039 45.6161C82.039 45.6161 81.4164 45.3961 80.8674 43.7482C80.3183 42.1003 75.7051 41.3032 74.048 42.7702C72.391 44.2372 73.2734 45.4107 74.651 45.8655C76.0286 46.3203 74.0627 47.2249 76.2296 47.665C78.3965 48.1051 79.2839 48.3642 78.6808 48.9315C78.0778 49.4987 67.2336 46.374 67.4542 43.9193C67.4542 43.9193 45.6921 53.7627 37 73.9873C37.0955 74.3707 37.2983 74.719 37.5848 74.9917C37.8712 75.2644 38.2295 75.4503 38.6178 75.5277C40.015 75.8602 40.9122 75.9873 40.3974 78.667C39.8827 81.3466 39.0688 86.9798 42.6477 87.6302C46.2265 88.2805 44.4322 85.2684 43.5889 83.8356C42.7457 82.4029 42.1966 78.0068 44.2753 79.0875C46.3539 80.1682 43.2948 80.3882 46.398 86.2023C49.5013 92.0164 44.7067 91.5812 48.4326 95.7914C52.1585 100.002 54.2371 95.5763 55.4676 97.0628C56.6981 98.5493 55.5216 99.4246 57.963 99.7767C60.4044 100.129 59.3798 99.0628 60.4829 101.444C61.5859 103.826 62.3507 108.52 69.5524 106.823C69.5524 106.823 70.7437 109.483 69.5524 111.278C68.3611 113.072 64.8461 112.96 64.4392 116.701C64.0323 120.441 64.8755 121.869 66.5815 124.598C68.2876 127.326 67.0032 128.999 68.9151 130.304C70.8271 131.61 75.2883 132.397 74.4206 135.806C73.5529 139.214 71.9694 145.536 72.793 147.096C73.6166 148.656 72.5724 148.632 72.3027 150.558C72.0331 152.485 74.754 154.446 74.5432 156.915C74.3324 159.385 71.8713 161.771 73.4695 164.358C75.0677 166.944 75.4697 165.952 76.1855 168.27C76.9013 170.587 77.416 171.59 78.6808 171.903C79.9457 172.216 82.0047 172.509 82.7597 173.663C83.5147 174.817 85.3874 172.734 84.1226 171.502C82.8578 170.27 81.2203 170.695 81.6714 168.274C82.1224 165.854 83.5686 165.145 81.6419 163.952C79.7153 162.759 80.0437 161.365 80.833 161.346C81.6223 161.326 83.4461 160.544 81.9214 159.277C80.3967 158.011 79.9163 157.678 81.0929 157.717C82.2695 157.756 85.9071 158.93 89.1084 155.854C91.2678 153.735 93.3009 151.492 95.1973 149.135C95.7668 147.801 95.9764 146.341 95.8052 144.901C95.4571 142.754 97.1142 142.206 99.9625 142.485C102.811 142.764 102.477 141.404 102.477 141.404C102.477 141.404 104.992 143.991 105.85 133.507C105.85 133.507 105.703 131.786 108.939 130.285C112.175 128.784 109.429 124.989 107.601 124.989C107.601 124.989 106.885 122.661 105.36 122.309C103.835 121.957 100.365 122.378 98.9477 121.258C97.8901 120.467 96.759 119.78 95.5699 119.204C95.5699 119.204 97.3054 111.728 89.9517 111.723C89.9517 111.723 88.8927 106.344 85.1962 106.456C81.4998 106.569 81.0635 106.911 80.534 106.05C80.0045 105.19 79.3035 101.816 76.715 102.491C74.1265 103.165 73.5136 106.486 70.9938 105.733C68.4739 104.98 65.2971 105.175 66.057 102.667C66.8169 100.158 67.2581 97.2193 63.3361 97.1655C63.3361 97.1655 62.3556 96.7596 63.9832 95.4247C65.6109 94.0897 64.8657 92.0017 63.9293 92.1436C62.9929 92.2854 60.2181 94.2315 58.8945 94.3C57.5708 94.3685 53.3449 93.6399 55.6637 88.4712C57.9826 83.3026 69.0818 82.7989 69.8809 85.4053C70.68 88.0116 69.7485 89.0531 72.3322 89.3172C74.9158 89.5812 74.1363 84.9896 74.1363 84.9896L81.1958 80.6376C81.6879 80.2463 82.1105 79.7751 82.446 79.244C82.9656 78.4029 91.5646 74.2661 93.4226 71.3908C95.2806 68.5155 95.9082 66.9019 98.3496 68.1683C100.791 69.4348 101.806 69.7087 102.433 68.0999C103.061 66.4911 106.272 70.6133 107.576 68.8383C108.88 67.0632 108.277 64.8774 105.576 64.4911C102.875 64.1048 106.404 61.4692 105.321 60.7895C104.237 60.1098 102.198 62.4374 101.149 61.4985C100.1 60.5597 102.311 57.0976 98.7859 56.9705C95.261 56.8433 94.8149 57.1856 93.7265 61.0878C92.6382 64.9899 91.0988 61.0878 88.3338 63.9826C85.5688 66.8774 86.2012 65.1171 85.9267 63.3762C85.6522 61.6354 83.7402 60.3103 81.7939 60.1636C79.8476 60.0169 80.6222 56.4619 83.4902 55.6942C86.3581 54.9265 89.8291 53.5915 89.8291 53.5915C89.8291 53.5915 90.1379 55.9925 92.197 55.3715C94.256 54.7505 94.9571 52.6233 94.9571 52.6233L97.0161 52.9167C97.0161 52.9167 98.4133 51.4155 98.8153 51.3422C99.2173 51.2688 103.448 52.0072 103.448 52.0072C103.448 52.0072 105.836 51.8263 103.576 52.9412C101.316 54.0561 99.938 52.682 100.433 54.7162C100.928 56.7504 101.09 55.5964 102.6 56.99C104.11 58.3837 106.522 58.0756 107.047 56.1881C107.047 56.1881 110.15 57.4203 110.831 55.4204C111.513 53.4204 109.91 52.7749 109.91 52.7749Z" fill="#B6D2FF"/>
<path fill-rule="evenodd" clip-rule="evenodd" d="M155.293 121C155.433 120.688 155.499 120.348 155.485 120.007H155.6C155.108 108.266 145.414 99 133.622 99C121.83 99 112.136 108.266 111.644 120.007C111.586 120.335 111.586 120.672 111.644 121H111.3C105.661 121 99.6335 124.722 97.8836 134.728L94.4616 161.985C91.6617 181.997 101.967 187 115.422 187H151.897C165.313 187 175.307 179.756 172.818 161.985L169.435 134.728C167.374 125.002 161.541 121 155.98 121H155.293ZM148.97 121C148.848 120.683 148.783 120.347 148.779 120.007C148.779 111.57 141.915 104.73 133.449 104.73C124.983 104.73 118.12 111.57 118.12 120.007C118.178 120.335 118.178 120.672 118.12 121H148.97ZM120.827 143.654C118.679 143.654 116.938 141.862 116.938 139.651C116.938 137.441 118.679 135.649 120.827 135.649C122.975 135.649 124.716 137.441 124.716 139.651C124.716 141.862 122.975 143.654 120.827 143.654ZM142.409 139.651C142.409 141.862 144.15 143.654 146.298 143.654C148.445 143.654 150.186 141.862 150.186 139.651C150.186 137.441 148.445 135.649 146.298 135.649C144.15 135.649 142.409 137.441 142.409 139.651Z" fill="#005DF2"/>
</svg>
