<svg width="216" height="216" viewBox="0 0 216 216" fill="none" xmlns="http://www.w3.org/2000/svg">
<rect width="216" height="216" rx="10" fill="#F0F6FF"/>
<path d="M82.5835 60.9234C82.5835 67.2322 77.1682 72.2785 70.732 71.6655C65.1203 71.1302 61 66.097 61 60.4593V50.1316C61 47.7467 62.9317 45.8149 65.3167 45.8149H78.2668C80.6518 45.8149 82.5835 47.7467 82.5835 50.1316V52.29L86.9002 60.9234H82.5835Z" fill="#B6D2FF"/>
<path d="M50 81C50 76.0294 54.0294 72 59 72H87C91.9706 72 96 76.0294 96 81V114H59C54.0294 114 50 109.971 50 105V81Z" fill="#005DF2"/>
<path d="M72.2857 85L66 72H78L72.2857 85Z" fill="white"/>
<circle cx="89" cy="79" r="7" fill="#005DF2"/>
<circle cx="108" cy="98" r="7" fill="#005DF2"/>
<path d="M103 102.5L84 84L93.5 73.5L112 92.5L103 102.5Z" fill="#005DF2"/>
<path d="M134.417 60.9234C134.417 67.2322 139.832 72.2785 146.268 71.6655C151.88 71.1302 156 66.097 156 60.4593V50.1316C156 47.7467 154.068 45.8149 151.683 45.8149H138.733C136.348 45.8149 134.417 47.7467 134.417 50.1316V52.29L130.1 60.9234H134.417Z" fill="#B6D2FF"/>
<path d="M167 81C167 76.0294 162.971 72 158 72H130C125.029 72 121 76.0294 121 81V114H158C162.971 114 167 109.971 167 105V81Z" fill="#5496FF"/>
<path d="M144.714 85L151 72H139L144.714 85Z" fill="white"/>
<circle cx="7" cy="7" r="7" transform="matrix(-1 0 0 1 135 72)" fill="#5496FF"/>
<circle cx="7" cy="7" r="7" transform="matrix(-1 0 0 1 116 91)" fill="#5496FF"/>
<path d="M114 102.5L133 84L123.5 73.5L105 92.5L114 102.5Z" fill="#5496FF"/>
<path d="M51 108H167V117H51V108Z" fill="#454A6D"/>
<path d="M57 117H161V128H57V117Z" fill="#33385C"/>
<path d="M51 128H167V171H51V128Z" fill="#454A6D"/>
</svg>
