<svg width="73" height="74" viewBox="0 0 73 74" fill="none" xmlns="http://www.w3.org/2000/svg">
<circle cx="36.1635" cy="36.9506" r="36.1635" fill="white"/>
<path d="M59.8771 37.3947C59.8771 50.8679 48.7663 61.7893 35.0617 61.7893C21.3571 61.7893 10.2463 50.8679 10.2463 37.3947C10.2463 23.9215 21.3571 13 35.0617 13C38.415 12.9957 41.7342 13.6619 44.8174 14.958L41.1953 22.9797C38.0474 21.6849 34.5592 21.4203 31.2465 22.2251C27.9338 23.0298 24.9725 24.8613 22.8005 27.4485C20.6285 30.0358 19.3612 33.2415 19.1859 36.5915C19.0106 39.9416 19.9367 43.2582 21.8272 46.0509C23.7176 48.8435 26.4722 50.964 29.6834 52.0986C32.8947 53.2333 36.3921 53.3219 39.6585 52.3514C42.9249 51.3809 45.7869 49.4027 47.8213 46.7095C49.8556 44.0163 50.9542 40.751 50.9548 37.3965C50.9548 37.3403 50.9548 37.2851 50.9548 37.2299L39.9508 43.8579L35.5299 37.0725L48.4826 29.4751L48.7776 29.5C48.7495 29.4503 48.7195 29.4024 48.6895 29.3536L56.3533 24.8577C56.79 25.5713 57.1886 26.3069 57.5472 27.0615C58.33 28.7017 58.9231 30.4232 59.3152 32.1935C59.6902 33.9027 59.8785 35.6462 59.8771 37.3947V37.3947Z" fill="#005DF2"/>
<path d="M67.6766 23.8561C64.6079 18.0226 47.976 20.4823 30.5266 29.3509C26.6159 31.33 22.844 33.5637 19.236 36.0369C19.1967 36.4843 19.1771 36.9369 19.1771 37.3947C19.1768 38.0979 19.2247 38.8003 19.3203 39.4972C22.8553 36.406 27.5553 33.2522 32.9828 30.4942C46.5976 23.5744 59.6298 21.761 62.0917 26.4438C63.1218 28.3944 62.146 31.1653 59.6785 34.2353C57.5069 36.9362 54.1779 39.8673 50.0333 42.675C47.4256 44.431 44.7083 46.0246 41.8976 47.4462C37.8298 49.5137 33.8144 51.1284 30.1173 52.2441C24.7095 53.8808 19.9833 54.4626 16.7714 53.8744C14.8283 53.5191 13.4405 52.7357 12.7897 51.4985C12.2709 50.5116 12.2625 49.3149 12.7016 47.9764C11.8868 46.3154 11.2679 44.5682 10.8569 42.7689C5.4256 47.9792 2.84855 52.8471 4.48917 55.9705C6.31708 59.4456 12.9592 59.9777 21.7195 57.9644C26.1797 56.9398 31.1886 55.2552 36.3914 52.964C38.1238 52.2018 39.8718 51.3733 41.6354 50.4785C43.5938 49.4837 45.4748 48.4545 47.2783 47.391C52.1965 44.4958 56.4759 41.4074 59.8583 38.3999C66.2691 32.6907 69.4595 27.2456 67.6766 23.8561Z" fill="#F89F1C"/>
<path d="M24.9999 49.5L37.9693 52.2515L19.2004 69L20.5152 58.2277L25.4811 56.8773L24.9999 49.5Z" fill="white"/>
<path d="M22.7345 54.5934L17.7817 48.2029L33.8789 53.2236L21.6782 64.7231L22.6568 57.0273L22.7345 54.5934Z" fill="#F89F1C"/>
<path d="M68.1409 26.4595C68.1409 43.162 32.3816 57.3753 32.1025 57.4821L37.9646 52.2515C39.1801 51.6906 40.4024 51.0984 41.6316 50.4749C56.7868 42.7763 67.5688 32.7781 68.1409 26.4595Z" fill="white"/>
</svg>
