<svg width="101" height="42" viewBox="0 0 101 42" fill="none" xmlns="http://www.w3.org/2000/svg">
<path fill-rule="evenodd" clip-rule="evenodd" d="M61.2579 19.3549H75.1648C77.2734 19.3549 78.9302 18.6435 78.9302 17.7855C78.9302 16.9067 77.2734 16.2161 75.1648 16.2161H61.2579C59.1493 16.2161 57.4925 16.9067 57.4925 17.7855C57.4925 18.6435 59.1493 19.3549 61.2579 19.3549ZM91.6827 8.47585C94.7452 8.47585 96.7534 8.91528 98.7616 9.87785C100.77 10.8404 101.121 12.2215 100.669 13.4749L95.8999 27.2019C94.9962 29.8406 89.574 31.7846 83.198 31.7846H28.424C21.7467 31.7846 16.2241 29.6523 15.6718 26.8901L11.0529 4.07944L3.47192 3.53538C1.46371 3.3889 0.0579628 2.57282 0.4094 1.7358C0.760837 0.879957 2.71884 0.312881 4.77726 0.440525L16.7512 1.19174C18.4582 1.31939 19.7133 1.90321 19.864 2.61467L20.8179 7.30194C20.9685 7.97364 22.2738 8.47585 23.8804 8.47585H91.6827ZM27.6193 35.0918C23.4021 35.0918 19.9881 36.5148 19.9881 38.2725C19.9881 40.0093 23.4021 41.4322 27.6193 41.4322C31.7863 41.4322 35.2003 40.0093 35.2003 38.2725C35.2003 36.5148 31.7863 35.0918 27.6193 35.0918ZM84.1003 35.0918C79.883 35.0918 76.4691 36.5148 76.4691 38.2725C76.4691 40.0093 79.883 41.4322 84.1003 41.4322C88.2673 41.4322 91.6813 40.0093 91.6813 38.2725C91.6813 36.5148 88.2673 35.0918 84.1003 35.0918Z" fill="#454A6D"/>
</svg>
