<svg width="19" height="19" viewBox="0 0 19 19" fill="none" xmlns="http://www.w3.org/2000/svg">
<path d="M9.49261 4.60568C6.79792 4.60568 4.61495 6.78632 4.61495 9.47577C4.61495 12.1663 6.79792 14.3469 9.49261 14.3469C12.1852 14.3469 14.3703 12.1663 14.3703 9.47577C14.3703 6.78632 12.1852 4.60568 9.49261 4.60568ZM9.49261 12.6403C7.74223 12.6403 6.32313 11.2234 6.32313 9.47682C6.32313 7.72915 7.74223 6.31332 9.49261 6.31332C11.243 6.31332 12.66 7.72915 12.66 9.47682C12.66 11.2234 11.243 12.6403 9.49261 12.6403Z" fill="#454A6D"/>
<path d="M14.5644 5.56221C15.1926 5.56221 15.7018 5.05378 15.7018 4.42659C15.7018 3.79941 15.1926 3.29097 14.5644 3.29097C13.9363 3.29097 13.427 3.79941 13.427 4.42659C13.427 5.05378 13.9363 5.56221 14.5644 5.56221Z" fill="#454A6D"/>
<path d="M18.4967 3.27201C18.0019 1.99839 16.9943 0.991295 15.7187 0.499335C14.9812 0.222278 14.2015 0.0737413 13.4123 0.0568861C12.3962 0.0126413 12.0744 0 9.49789 0C6.92137 0 6.59113 -1.05959e-07 5.58352 0.0568861C4.79642 0.0726879 4.01671 0.221224 3.27921 0.499335C2.00255 0.991295 0.994947 1.99839 0.501166 3.27201C0.223678 4.00943 0.0749111 4.78687 0.0590848 5.57485C0.0137161 6.58827 0 6.90957 0 9.48314C0 12.0557 -7.86101e-09 12.3833 0.0590848 13.3914C0.0749111 14.1794 0.223678 14.9569 0.501166 15.6953C0.996002 16.9679 2.00361 17.975 3.28026 18.468C4.0146 18.7545 4.79431 18.9168 5.58563 18.9421C6.60168 18.9863 6.92348 19 9.5 19C12.0765 19 12.4068 19 13.4144 18.9421C14.2025 18.9263 14.9822 18.7767 15.7208 18.5007C16.9964 18.0066 18.004 17.0006 18.4988 15.7269C18.7763 14.9895 18.9251 14.2121 18.9409 13.4241C18.9863 12.4107 19 12.0894 19 9.5158C19 6.94223 19 6.61566 18.9409 5.60751C18.9272 4.80899 18.7795 4.01785 18.4967 3.27201ZM17.2116 13.3135C17.2042 13.9203 17.0945 14.5218 16.8835 15.0917C16.5617 15.9208 15.9065 16.576 15.0772 16.8942C14.5127 17.1038 13.9176 17.2134 13.3152 17.2218C12.3129 17.2681 12.0301 17.2797 9.45991 17.2797C6.88761 17.2797 6.62489 17.2797 5.60356 17.2218C5.00322 17.2144 4.40604 17.1038 3.84263 16.8942C3.01016 16.5771 2.35073 15.9218 2.02893 15.0917C1.82213 14.5292 1.7103 13.934 1.7008 13.3335C1.65543 12.3327 1.64488 12.0504 1.64488 9.4842C1.64488 6.91694 1.64488 6.65463 1.7008 5.63384C1.70818 5.02706 1.81791 4.42659 2.02893 3.85668C2.35073 3.0255 3.01016 2.37131 3.84263 2.05317C4.40604 1.84459 5.00322 1.73398 5.60356 1.72555C6.60695 1.68025 6.88866 1.66761 9.45991 1.66761C12.0312 1.66761 12.2949 1.66761 13.3152 1.72555C13.9176 1.73292 14.5127 1.84354 15.0772 2.05317C15.9065 2.37237 16.5617 3.02761 16.8835 3.85668C17.0903 4.41922 17.2021 5.01442 17.2116 5.61488C17.257 6.61671 17.2686 6.89798 17.2686 9.46524C17.2686 12.0314 17.2686 12.3074 17.2232 13.3145H17.2116V13.3135Z" fill="#454A6D"/>
</svg>
