<svg width="1440" height="537" viewBox="0 0 1440 537" fill="none" xmlns="http://www.w3.org/2000/svg">
<g clip-path="url(#clip0_1_4)">
<path fill-rule="evenodd" clip-rule="evenodd" d="M-95.5181 1006.04L-79.873 978.938L-149.6 938.681L-165.245 965.779L-166.111 965.279L-150.466 938.181L-220.194 897.924L-235.839 925.022L-236.705 924.522L-221.06 897.424L-290.787 857.167L-306.432 884.265L-307.298 883.765L-291.653 856.667L-361.38 816.41L-377.025 843.508L-377.891 843.008L-362.246 815.91L-431.974 775.653L-447.619 802.751L-448.485 802.251L-432.84 775.153L-502.567 734.895L-518.212 761.994L-519.078 761.494L-503.433 734.395L-573.16 694.138L-588.805 721.237L-589.671 720.737L-574.026 693.638L-637.355 657.076L-636.855 656.21L-573.526 692.772L-533.566 623.559L-596.895 586.996L-596.395 586.13L-533.066 622.693L-493.105 553.48L-556.434 516.917L-555.934 516.051L-492.605 552.614L-452.645 483.4L-515.974 446.837L-515.474 445.971L-452.145 482.534L-412.185 413.321L-475.513 376.758L-475.013 375.892L-411.685 412.455L-371.724 343.241L-435.053 306.679L-434.553 305.813L-371.224 342.375L-331.264 273.162L-394.593 236.599L-394.093 235.733L-330.764 272.296L-290.804 203.083L-354.132 166.52L-353.632 165.654L-290.304 202.217L-250.343 133.003L-313.672 96.4405L-313.172 95.5745L-249.843 132.137L-209.883 62.924L-273.212 26.3611L-272.712 25.4951L-209.383 62.058L-169.423 -7.1554L-232.751 -43.7183L-232.251 -44.5843L-168.923 -8.02143L-128.962 -77.2348L-192.291 -113.798L-191.791 -114.664L-128.462 -78.1008L-88.502 -147.314L-151.831 -183.877L-151.331 -184.743L-88.002 -148.18L-48.0416 -217.394L-111.37 -253.956L-110.87 -254.822L-47.5416 -218.26L-7.58128 -287.473L-70.91 -324.036L-70.41 -324.902L-7.08128 -288.339L8.56386 -315.437L9.42988 -314.937L-6.21526 -287.839L63.512 -247.582L79.1572 -274.68L80.0232 -274.18L64.378 -247.082L134.105 -206.825L149.75 -233.923L150.616 -233.423L134.971 -206.325L204.699 -166.068L220.344 -193.166L221.21 -192.666L205.565 -165.568L275.292 -125.311L290.937 -152.409L291.803 -151.909L276.158 -124.811L345.885 -84.5536L361.53 -111.652L362.396 -111.152L346.751 -84.0536L416.478 -43.7965L432.124 -70.8947L432.99 -70.3947L417.344 -43.2965L487.072 -3.03941L502.717 -30.1377L503.583 -29.6377L487.938 -2.53941L557.665 37.7177L573.31 10.6194L574.176 11.1194L558.531 38.2177L628.258 78.4747L643.904 51.3764L644.77 51.8764L629.124 78.9747L698.852 119.232L714.497 92.1335L715.363 92.6335L699.718 119.732L769.445 159.989L785.09 132.891L785.956 133.391L770.311 160.489L840.038 200.746L855.684 173.648L856.55 174.148L840.904 201.246L901.197 236.056L900.697 236.922L840.404 202.112L800.444 271.325L860.736 306.135L860.236 307.001L799.944 272.191L759.984 341.405L820.276 376.215L819.776 377.081L759.484 342.271L719.523 411.484L779.816 446.294L779.316 447.16L719.023 412.35L679.063 481.564L739.355 516.373L738.855 517.239L678.563 482.43L638.603 551.643L698.895 586.453L698.395 587.319L638.103 552.509L598.142 621.722L658.435 656.532L657.935 657.398L597.642 622.588L557.682 691.802L617.974 726.612L617.474 727.478L557.182 692.668L517.222 761.881L577.514 796.691L577.014 797.557L516.722 762.747L476.761 831.96L537.054 866.77L536.554 867.636L476.261 832.827L436.301 902.04L496.593 936.85L496.093 937.716L435.801 902.906L395.84 972.119L456.133 1006.93L455.633 1007.8L395.34 972.985L355.38 1042.2L415.673 1077.01L415.173 1077.87L354.88 1043.06L314.92 1112.28L375.212 1147.09L374.712 1147.95L314.42 1113.14L274.459 1182.36L334.752 1217.17L334.252 1218.03L273.959 1183.22L258.314 1210.32L257.448 1209.82L273.093 1182.72L203.366 1142.47L187.721 1169.56L186.855 1169.06L202.5 1141.97L132.773 1101.71L117.128 1128.81L116.262 1128.31L131.907 1101.21L62.1797 1060.95L46.5345 1088.05L45.6685 1087.55L61.3137 1060.45L-8.4136 1020.19L-24.0587 1047.29L-24.9248 1046.79L-9.27963 1019.69L-79.0069 979.438L-94.6521 1006.54L-95.5181 1006.04ZM273.593 1181.86L313.554 1112.64L243.827 1072.39L203.866 1141.6L273.593 1181.86ZM314.054 1111.78L354.014 1042.56L284.287 1002.31L244.327 1071.52L314.054 1111.78ZM354.514 1041.7L394.474 972.485L324.747 932.228L284.787 1001.44L354.514 1041.7ZM394.974 971.619L434.935 902.406L365.208 862.149L325.247 931.362L394.974 971.619ZM435.435 901.54L475.395 832.327L405.668 792.069L365.708 861.283L435.435 901.54ZM475.895 831.46L515.856 762.247L446.128 721.99L406.168 791.203L475.895 831.46ZM516.356 761.381L556.316 692.168L486.589 651.911L446.628 721.124L516.356 761.381ZM556.816 691.302L596.776 622.088L527.049 581.831L487.089 651.045L556.816 691.302ZM597.276 621.222L637.236 552.009L567.509 511.752L527.549 580.965L597.276 621.222ZM637.736 551.143L677.697 481.93L607.97 441.672L568.009 510.886L637.736 551.143ZM678.197 481.064L718.157 411.85L648.43 371.593L608.47 440.806L678.197 481.064ZM718.657 410.984L758.618 341.771L688.89 301.514L648.93 370.727L718.657 410.984ZM759.118 340.905L799.078 271.691L729.351 231.434L689.39 300.648L759.118 340.905ZM799.578 270.825L839.538 201.612L769.811 161.355L729.851 230.568L799.578 270.825ZM699.218 120.598L768.945 160.855L728.985 230.068L659.257 189.811L699.218 120.598ZM658.757 190.677L728.485 230.934L688.524 300.148L618.797 259.891L658.757 190.677ZM618.297 260.757L688.024 301.014L648.064 370.227L578.337 329.97L618.297 260.757ZM577.837 330.836L647.564 371.093L607.604 440.306L537.876 400.049L577.837 330.836ZM537.376 400.915L607.104 441.172L567.143 510.386L497.416 470.129L537.376 400.915ZM496.916 470.995L566.643 511.252L526.683 580.465L456.956 540.208L496.916 470.995ZM456.456 541.074L526.183 581.331L486.223 650.545L416.495 610.288L456.456 541.074ZM415.995 611.154L485.723 651.411L445.762 720.624L376.035 680.367L415.995 611.154ZM375.535 681.233L445.262 721.49L405.302 790.703L335.575 750.446L375.535 681.233ZM335.075 751.312L404.802 791.569L364.842 860.783L295.114 820.526L335.075 751.312ZM294.614 821.392L364.342 861.649L324.381 930.862L254.654 890.605L294.614 821.392ZM254.154 891.471L323.881 931.728L283.921 1000.94L214.194 960.684L254.154 891.471ZM213.694 961.55L283.421 1001.81L243.461 1071.02L173.733 1030.76L213.694 961.55ZM173.233 1031.63L242.961 1071.89L203 1141.1L133.273 1100.84L173.233 1031.63ZM132.407 1100.34L172.367 1031.13L102.64 990.873L62.6797 1060.09L132.407 1100.34ZM172.867 1030.26L212.828 961.05L143.1 920.793L103.14 990.007L172.867 1030.26ZM213.328 960.184L253.288 890.971L183.561 850.714L143.6 919.927L213.328 960.184ZM253.788 890.105L293.748 820.892L224.021 780.635L184.061 849.848L253.788 890.105ZM294.248 820.026L334.209 750.812L264.481 710.555L224.521 779.769L294.248 820.026ZM334.709 749.946L374.669 680.733L304.942 640.476L264.981 709.689L334.709 749.946ZM375.169 679.867L415.129 610.654L345.402 570.397L305.442 639.61L375.169 679.867ZM415.629 609.788L455.59 540.574L385.862 500.317L345.902 569.53L415.629 609.788ZM456.09 539.708L496.05 470.495L426.323 430.238L386.362 499.451L456.09 539.708ZM496.55 469.629L536.51 400.415L466.783 360.158L426.823 429.372L496.55 469.629ZM537.01 399.549L576.971 330.336L507.243 290.079L467.283 359.292L537.01 399.549ZM577.471 329.47L617.431 260.257L547.704 220L507.743 289.213L577.471 329.47ZM617.931 259.391L657.891 190.177L588.164 149.92L548.204 219.134L617.931 259.391ZM658.391 189.311L698.352 120.098L628.624 79.8408L588.664 149.054L658.391 189.311ZM558.031 39.0837L627.758 79.3408L587.798 148.554L518.071 108.297L558.031 39.0837ZM517.571 109.163L587.298 149.42L547.338 218.634L477.61 178.376L517.571 109.163ZM477.11 179.243L546.838 219.5L506.877 288.713L437.15 248.456L477.11 179.243ZM436.65 249.322L506.377 289.579L466.417 358.792L396.69 318.535L436.65 249.322ZM396.19 319.401L465.917 359.658L425.957 428.872L356.229 388.615L396.19 319.401ZM355.729 389.481L425.457 429.738L385.496 498.951L315.769 458.694L355.729 389.481ZM315.269 459.56L384.996 499.817L345.036 569.03L275.309 528.773L315.269 459.56ZM274.809 529.639L344.536 569.897L304.576 639.11L234.848 598.853L274.809 529.639ZM234.348 599.719L304.076 639.976L264.115 709.189L194.388 668.932L234.348 599.719ZM193.888 669.798L263.615 710.055L223.655 779.269L153.928 739.012L193.888 669.798ZM153.428 739.878L223.155 780.135L183.195 849.348L113.467 809.091L153.428 739.878ZM112.967 809.957L182.695 850.214L142.734 919.427L73.007 879.17L112.967 809.957ZM72.507 880.036L142.234 920.293L102.274 989.507L32.5467 949.25L72.507 880.036ZM32.0467 950.116L101.774 990.373L61.8137 1059.59L-7.9136 1019.33L32.0467 950.116ZM-8.77963 1018.83L31.1807 949.616L-38.5466 909.359L-78.5069 978.572L-8.77963 1018.83ZM31.6807 948.75L71.641 879.536L1.91372 839.279L-38.0466 908.493L31.6807 948.75ZM72.141 878.67L112.101 809.457L42.374 769.2L2.41372 838.413L72.141 878.67ZM112.601 808.591L152.562 739.378L82.8344 699.12L42.874 768.334L112.601 808.591ZM153.062 738.512L193.022 669.298L123.295 629.041L83.3344 698.254L153.062 738.512ZM193.522 668.432L233.482 599.219L163.755 558.962L123.795 628.175L193.522 668.432ZM233.982 598.353L273.943 529.139L204.215 488.882L164.255 558.096L233.982 598.353ZM274.443 528.273L314.403 459.06L244.676 418.803L204.715 488.016L274.443 528.273ZM314.903 458.194L354.863 388.981L285.136 348.724L245.176 417.937L314.903 458.194ZM355.363 388.115L395.324 318.901L325.596 278.644L285.636 347.858L355.363 388.115ZM395.824 318.035L435.784 248.822L366.057 208.565L326.096 277.778L395.824 318.035ZM436.284 247.956L476.244 178.743L406.517 138.485L366.557 207.699L436.284 247.956ZM476.744 177.876L516.705 108.663L446.977 68.406L407.017 137.619L476.744 177.876ZM517.205 107.797L557.165 38.5837L487.438 -1.67338L447.477 67.54L517.205 107.797ZM-39.4126 908.859L-79.373 978.072L-149.1 937.815L-109.14 868.601L-39.4126 908.859ZM1.0477 838.779L-38.9126 907.993L-108.64 867.735L-68.6797 798.522L1.0477 838.779ZM41.508 768.7L1.5477 837.913L-68.1797 797.656L-28.2194 728.443L41.508 768.7ZM81.9684 698.62L42.008 767.834L-27.7194 727.577L12.241 658.363L81.9684 698.62ZM122.429 628.541L82.4684 697.754L12.741 657.497L52.7014 588.284L122.429 628.541ZM162.889 558.462L122.929 627.675L53.2014 587.418L93.1617 518.205L162.889 558.462ZM203.349 488.382L163.389 557.596L93.6617 517.339L133.622 448.125L203.349 488.382ZM243.81 418.303L203.849 487.516L134.122 447.259L174.082 378.046L243.81 418.303ZM284.27 348.224L244.31 417.437L174.582 377.18L214.543 307.966L284.27 348.224ZM324.73 278.144L284.77 347.358L215.043 307.1L255.003 237.887L324.73 278.144ZM365.191 208.065L325.23 277.278L255.503 237.021L295.463 167.808L365.191 208.065ZM405.651 137.985L365.691 207.199L295.963 166.942L335.924 97.7283L405.651 137.985ZM446.111 67.906L406.151 137.119L336.424 96.8623L376.384 27.6489L446.111 67.906ZM486.572 -2.17339L446.611 67.04L376.884 26.7829L416.844 -42.4305L486.572 -2.17339ZM415.978 -42.9305L346.251 -83.1876L306.291 -13.9742L376.018 26.2829L415.978 -42.9305ZM375.518 27.1489L305.791 -13.1082L265.83 56.1052L335.558 96.3623L375.518 27.1489ZM335.058 97.2283L265.33 56.9712L225.37 126.185L295.097 166.442L335.058 97.2283ZM294.597 167.308L224.87 127.051L184.91 196.264L254.637 236.521L294.597 167.308ZM254.137 237.387L184.41 197.13L144.449 266.343L214.177 306.6L254.137 237.387ZM213.677 307.466L143.949 267.209L103.989 336.423L173.716 376.68L213.677 307.466ZM173.216 377.546L103.489 337.289L63.5288 406.502L133.256 446.759L173.216 377.546ZM132.756 447.625L63.0288 407.368L23.0684 476.581L92.7957 516.839L132.756 447.625ZM92.2957 517.705L22.5684 477.447L-17.3919 546.661L52.3354 586.918L92.2957 517.705ZM51.8354 587.784L-17.8919 547.527L-57.8523 616.74L11.875 656.997L51.8354 587.784ZM11.375 657.863L-58.3523 617.606L-98.3126 686.82L-28.5854 727.077L11.375 657.863ZM-29.0854 727.943L-98.8126 687.686L-138.773 756.899L-69.0457 797.156L-29.0854 727.943ZM-69.5457 798.022L-139.273 757.765L-179.233 826.978L-109.506 867.235L-69.5457 798.022ZM-110.006 868.101L-179.733 827.844L-219.694 897.058L-149.966 937.315L-110.006 868.101ZM-180.599 827.344L-220.56 896.558L-290.287 856.301L-250.327 787.087L-180.599 827.344ZM-140.139 757.265L-180.099 826.478L-249.827 786.221L-209.866 717.008L-140.139 757.265ZM-99.6787 687.186L-139.639 756.399L-209.366 716.142L-169.406 646.929L-99.6787 687.186ZM-59.2183 617.106L-99.1787 686.32L-168.906 646.063L-128.946 576.849L-59.2183 617.106ZM-18.7579 547.027L-58.7183 616.24L-128.446 575.983L-88.4852 506.77L-18.7579 547.027ZM21.7024 476.947L-18.2579 546.161L-87.9852 505.904L-48.0249 436.69L21.7024 476.947ZM62.1627 406.868L22.2024 476.081L-47.5249 435.824L-7.56454 366.611L62.1627 406.868ZM102.623 336.789L62.6627 406.002L-7.06454 365.745L32.8958 296.532L102.623 336.789ZM143.083 266.709L103.123 335.923L33.3958 295.666L73.3561 226.452L143.083 266.709ZM183.544 196.63L143.583 265.843L73.8561 225.586L113.816 156.373L183.544 196.63ZM224.004 126.551L184.044 195.764L114.316 155.507L154.277 86.2935L224.004 126.551ZM264.464 56.4712L224.504 125.685L154.777 85.4275L194.737 16.2141L264.464 56.4712ZM304.925 -13.6082L264.964 55.6052L195.237 15.3481L235.198 -53.8653L304.925 -13.6082ZM345.385 -83.6876L305.425 -14.4742L235.698 -54.7313L275.658 -123.945L345.385 -83.6876ZM274.792 -124.445L205.065 -164.702L165.104 -95.4884L234.831 -55.2313L274.792 -124.445ZM234.331 -54.3653L164.604 -94.6223L124.644 -25.4089L194.371 14.8481L234.331 -54.3653ZM193.871 15.7141L124.144 -24.5429L84.1835 44.6704L153.911 84.9275L193.871 15.7141ZM153.411 85.7935L83.6835 45.5365L43.7232 114.75L113.45 155.007L153.411 85.7935ZM112.95 155.873L43.2232 115.616L3.26285 184.829L72.9901 225.086L112.95 155.873ZM72.4901 225.952L2.76285 185.695L-37.1974 254.908L32.5298 295.166L72.4901 225.952ZM32.0298 296.032L-37.6974 255.775L-77.6578 324.988L-7.93057 365.245L32.0298 296.032ZM-8.43057 366.111L-78.1578 325.854L-118.118 395.067L-48.3909 435.324L-8.43057 366.111ZM-48.8909 436.19L-118.618 395.933L-158.578 465.147L-88.8512 505.404L-48.8909 436.19ZM-89.3512 506.27L-159.078 466.013L-199.039 535.226L-129.312 575.483L-89.3512 506.27ZM-129.812 576.349L-199.539 536.092L-239.499 605.306L-169.772 645.563L-129.812 576.349ZM-170.272 646.429L-239.999 606.172L-279.96 675.385L-210.232 715.642L-170.272 646.429ZM-210.732 716.508L-280.46 676.251L-320.42 745.464L-250.693 785.721L-210.732 716.508ZM-251.193 786.587L-320.92 746.33L-360.88 815.544L-291.153 855.801L-251.193 786.587ZM-321.786 745.83L-361.746 815.044L-431.474 774.786L-391.513 705.573L-321.786 745.83ZM-281.326 675.751L-321.286 744.964L-391.013 704.707L-351.053 635.494L-281.326 675.751ZM-240.865 605.672L-280.826 674.885L-350.553 634.628L-310.593 565.414L-240.865 605.672ZM-200.405 535.592L-240.365 604.806L-310.093 564.548L-270.132 495.335L-200.405 535.592ZM-159.945 465.513L-199.905 534.726L-269.632 494.469L-229.672 425.256L-159.945 465.513ZM-119.484 395.433L-159.445 464.647L-229.172 424.39L-189.211 355.176L-119.484 395.433ZM-79.0238 325.354L-118.984 394.567L-188.711 354.31L-148.751 285.097L-79.0238 325.354ZM-38.5635 255.275L-78.5238 324.488L-148.251 284.231L-108.291 215.017L-38.5635 255.275ZM1.89682 185.195L-38.0635 254.408L-107.791 214.151L-67.8305 144.938L1.89682 185.195ZM42.3572 115.116L2.39682 184.329L-67.3305 144.072L-27.3701 74.8588L42.3572 115.116ZM82.8175 45.0365L42.8572 114.25L-26.8701 73.9927L13.0902 4.7794L82.8175 45.0365ZM123.278 -25.0429L83.3175 44.1704L13.5902 3.91338L53.5506 -65.3L123.278 -25.0429ZM163.738 -95.1223L123.778 -25.9089L54.0506 -66.166L94.011 -135.379L163.738 -95.1223ZM204.199 -165.202L164.238 -95.9884L94.511 -136.245L134.471 -205.459L204.199 -165.202ZM133.605 -205.959L63.878 -246.216L23.9177 -177.003L93.6449 -136.745L133.605 -205.959ZM93.1449 -135.879L23.4177 -176.136L-16.5427 -106.923L53.1846 -66.666L93.1449 -135.879ZM52.6846 -65.8L-17.0427 -106.057L-57.003 -36.8437L12.7242 3.41335L52.6846 -65.8ZM12.2242 4.27938L-57.503 -35.9777L-97.4634 33.2357L-27.7361 73.4927L12.2242 4.27938ZM-28.2361 74.3587L-97.9634 34.1017L-137.924 103.315L-68.1965 143.572L-28.2361 74.3587ZM-68.6965 144.438L-138.424 104.181L-178.384 173.394L-108.657 213.651L-68.6965 144.438ZM-109.157 214.517L-178.884 174.26L-218.844 243.474L-149.117 283.731L-109.157 214.517ZM-149.617 284.597L-219.344 244.34L-259.305 313.553L-189.578 353.81L-149.617 284.597ZM-190.078 354.676L-259.805 314.419L-299.765 383.633L-230.038 423.89L-190.078 354.676ZM-230.538 424.756L-300.265 384.499L-340.225 453.712L-270.498 493.969L-230.538 424.756ZM-270.998 494.835L-340.725 454.578L-380.686 523.791L-310.959 564.048L-270.998 494.835ZM-311.459 564.914L-381.186 524.657L-421.146 593.871L-351.419 634.128L-311.459 564.914ZM-351.919 634.994L-421.646 594.737L-461.606 663.95L-391.879 704.207L-351.919 634.994ZM-392.379 705.073L-462.106 664.816L-502.067 734.029L-432.34 774.286L-392.379 705.073ZM-462.973 664.316L-502.933 733.529L-572.66 693.272L-532.7 624.059L-462.973 664.316ZM-422.512 594.237L-462.473 663.45L-532.2 623.193L-492.239 553.98L-422.512 594.237ZM-382.052 524.157L-422.012 593.371L-491.739 553.114L-451.779 483.9L-382.052 524.157ZM-341.591 454.078L-381.552 523.291L-451.279 483.034L-411.319 413.821L-341.591 454.078ZM-301.131 383.999L-341.091 453.212L-410.819 412.955L-370.858 343.741L-301.131 383.999ZM-260.671 313.919L-300.631 383.133L-370.358 342.875L-330.398 273.662L-260.671 313.919ZM-220.21 243.84L-260.171 313.053L-329.898 272.796L-289.938 203.583L-220.21 243.84ZM-179.75 173.76L-219.71 242.974L-289.438 202.717L-249.477 133.503L-179.75 173.76ZM-139.29 103.681L-179.25 172.894L-248.977 132.637L-209.017 63.424L-139.29 103.681ZM-98.8294 33.6017L-138.79 102.815L-208.517 62.558L-168.557 -6.6554L-98.8294 33.6017ZM-58.3691 -36.4777L-98.3294 32.7357L-168.057 -7.52143L-128.096 -76.7348L-58.3691 -36.4777ZM-17.9087 -106.557L-57.8691 -37.3437L-127.596 -77.6008L-87.636 -146.814L-17.9087 -106.557ZM22.5516 -176.636L-17.4087 -107.423L-87.136 -147.68L-47.1756 -216.894L22.5516 -176.636ZM63.012 -246.716L23.0516 -177.503L-46.6756 -217.76L-6.71526 -286.973L63.012 -246.716Z" fill="url(#paint0_radial_1_4)"/>
<path fill-rule="evenodd" clip-rule="evenodd" d="M978.482 1006.04L994.127 978.938L924.4 938.681L908.755 965.779L907.889 965.279L923.534 938.181L853.806 897.924L838.161 925.022L837.295 924.522L852.94 897.424L783.213 857.167L767.568 884.265L766.702 883.765L782.347 856.667L712.62 816.41L696.975 843.508L696.109 843.008L711.754 815.91L642.026 775.653L626.381 802.751L625.515 802.251L641.16 775.153L571.433 734.895L555.788 761.994L554.922 761.494L570.567 734.395L500.84 694.138L485.195 721.237L484.329 720.737L499.974 693.638L436.645 657.076L437.145 656.21L500.474 692.772L540.434 623.559L477.105 586.996L477.605 586.13L540.934 622.693L580.895 553.48L517.566 516.917L518.066 516.051L581.395 552.614L621.355 483.4L558.026 446.837L558.526 445.971L621.855 482.534L661.815 413.321L598.487 376.758L598.987 375.892L662.315 412.455L702.276 343.241L638.947 306.679L639.447 305.813L702.776 342.375L742.736 273.162L679.407 236.599L679.907 235.733L743.236 272.296L783.196 203.083L719.868 166.52L720.368 165.654L783.696 202.217L823.657 133.003L760.328 96.4405L760.828 95.5745L824.157 132.137L864.117 62.924L800.788 26.3611L801.288 25.4951L864.617 62.058L904.577 -7.1554L841.249 -43.7183L841.749 -44.5843L905.077 -8.02143L945.038 -77.2348L881.709 -113.798L882.209 -114.664L945.538 -78.1008L985.498 -147.314L922.169 -183.877L922.669 -184.743L985.998 -148.18L1025.96 -217.394L962.63 -253.956L963.13 -254.822L1026.46 -218.26L1066.42 -287.473L1003.09 -324.036L1003.59 -324.902L1066.92 -288.339L1082.56 -315.437L1083.43 -314.937L1067.78 -287.839L1137.51 -247.582L1153.16 -274.68L1154.02 -274.18L1138.38 -247.082L1208.11 -206.825L1223.75 -233.923L1224.62 -233.423L1208.97 -206.325L1278.7 -166.068L1294.34 -193.166L1295.21 -192.666L1279.56 -165.568L1349.29 -125.311L1364.94 -152.409L1365.8 -151.909L1350.16 -124.811L1419.89 -84.5536L1435.53 -111.652L1436.4 -111.152L1420.75 -84.0536L1490.48 -43.7965L1506.12 -70.8947L1506.99 -70.3947L1491.34 -43.2965L1561.07 -3.03941L1576.72 -30.1377L1577.58 -29.6377L1561.94 -2.53941L1631.66 37.7176L1647.31 10.6194L1648.18 11.1194L1632.53 38.2176L1702.26 78.4747L1717.9 51.3765L1718.77 51.8765L1703.12 78.9747L1772.85 119.232L1788.5 92.1335L1789.36 92.6335L1773.72 119.732L1843.45 159.989L1859.09 132.891L1859.96 133.391L1844.31 160.489L1914.04 200.746L1929.68 173.648L1930.55 174.148L1914.9 201.246L1975.2 236.056L1974.7 236.922L1914.4 202.112L1874.44 271.325L1934.74 306.135L1934.24 307.001L1873.94 272.191L1833.98 341.405L1894.28 376.215L1893.78 377.081L1833.48 342.271L1793.52 411.484L1853.82 446.294L1853.32 447.16L1793.02 412.35L1753.06 481.564L1813.36 516.373L1812.86 517.239L1752.56 482.43L1712.6 551.643L1772.89 586.453L1772.39 587.319L1712.1 552.509L1672.14 621.722L1732.43 656.532L1731.93 657.398L1671.64 622.588L1631.68 691.802L1691.97 726.612L1691.47 727.478L1631.18 692.668L1591.22 761.881L1651.51 796.691L1651.01 797.557L1590.72 762.747L1550.76 831.96L1611.05 866.77L1610.55 867.636L1550.26 832.827L1510.3 902.04L1570.59 936.85L1570.09 937.716L1509.8 902.906L1469.84 972.119L1530.13 1006.93L1529.63 1007.8L1469.34 972.985L1429.38 1042.2L1489.67 1077.01L1489.17 1077.87L1428.88 1043.06L1388.92 1112.28L1449.21 1147.09L1448.71 1147.95L1388.42 1113.14L1348.46 1182.36L1408.75 1217.17L1408.25 1218.03L1347.96 1183.22L1332.31 1210.32L1331.45 1209.82L1347.09 1182.72L1277.37 1142.47L1261.72 1169.56L1260.86 1169.06L1276.5 1141.97L1206.77 1101.71L1191.13 1128.81L1190.26 1128.31L1205.91 1101.21L1136.18 1060.95L1120.53 1088.05L1119.67 1087.55L1135.31 1060.45L1065.59 1020.19L1049.94 1047.29L1049.08 1046.79L1064.72 1019.69L994.993 979.438L979.348 1006.54L978.482 1006.04ZM1347.59 1181.86L1387.55 1112.64L1317.83 1072.39L1277.87 1141.6L1347.59 1181.86ZM1388.05 1111.78L1428.01 1042.56L1358.29 1002.31L1318.33 1071.52L1388.05 1111.78ZM1428.51 1041.7L1468.47 972.485L1398.75 932.228L1358.79 1001.44L1428.51 1041.7ZM1468.97 971.619L1508.93 902.406L1439.21 862.149L1399.25 931.362L1468.97 971.619ZM1509.43 901.54L1549.4 832.327L1479.67 792.069L1439.71 861.283L1509.43 901.54ZM1549.9 831.46L1589.86 762.247L1520.13 721.99L1480.17 791.203L1549.9 831.46ZM1590.36 761.381L1630.32 692.168L1560.59 651.911L1520.63 721.124L1590.36 761.381ZM1630.82 691.302L1670.78 622.088L1601.05 581.831L1561.09 651.045L1630.82 691.302ZM1671.28 621.222L1711.24 552.009L1641.51 511.752L1601.55 580.965L1671.28 621.222ZM1711.74 551.143L1751.7 481.93L1681.97 441.672L1642.01 510.886L1711.74 551.143ZM1752.2 481.064L1792.16 411.85L1722.43 371.593L1682.47 440.806L1752.2 481.064ZM1792.66 410.984L1832.62 341.771L1762.89 301.514L1722.93 370.727L1792.66 410.984ZM1833.12 340.905L1873.08 271.691L1803.35 231.434L1763.39 300.648L1833.12 340.905ZM1873.58 270.825L1913.54 201.612L1843.81 161.355L1803.85 230.568L1873.58 270.825ZM1773.22 120.598L1842.95 160.855L1802.98 230.068L1733.26 189.811L1773.22 120.598ZM1732.76 190.677L1802.48 230.934L1762.52 300.148L1692.8 259.891L1732.76 190.677ZM1692.3 260.757L1762.02 301.014L1722.06 370.227L1652.34 329.97L1692.3 260.757ZM1651.84 330.836L1721.56 371.093L1681.6 440.306L1611.88 400.049L1651.84 330.836ZM1611.38 400.915L1681.1 441.172L1641.14 510.386L1571.42 470.129L1611.38 400.915ZM1570.92 470.995L1640.64 511.252L1600.68 580.465L1530.96 540.208L1570.92 470.995ZM1530.46 541.074L1600.18 581.331L1560.22 650.545L1490.5 610.287L1530.46 541.074ZM1490 611.154L1559.72 651.411L1519.76 720.624L1450.03 680.367L1490 611.154ZM1449.53 681.233L1519.26 721.49L1479.3 790.703L1409.57 750.446L1449.53 681.233ZM1409.07 751.312L1478.8 791.569L1438.84 860.783L1369.11 820.526L1409.07 751.312ZM1368.61 821.392L1438.34 861.649L1398.38 930.862L1328.65 890.605L1368.61 821.392ZM1328.15 891.471L1397.88 931.728L1357.92 1000.94L1288.19 960.684L1328.15 891.471ZM1287.69 961.55L1357.42 1001.81L1317.46 1071.02L1247.73 1030.76L1287.69 961.55ZM1247.23 1031.63L1316.96 1071.89L1277 1141.1L1207.27 1100.84L1247.23 1031.63ZM1206.41 1100.34L1246.37 1031.13L1176.64 990.873L1136.68 1060.09L1206.41 1100.34ZM1246.87 1030.26L1286.83 961.05L1217.1 920.793L1177.14 990.007L1246.87 1030.26ZM1287.33 960.184L1327.29 890.971L1257.56 850.714L1217.6 919.927L1287.33 960.184ZM1327.79 890.105L1367.75 820.892L1298.02 780.635L1258.06 849.848L1327.79 890.105ZM1368.25 820.026L1408.21 750.812L1338.48 710.555L1298.52 779.769L1368.25 820.026ZM1408.71 749.946L1448.67 680.733L1378.94 640.476L1338.98 709.689L1408.71 749.946ZM1449.17 679.867L1489.13 610.654L1419.4 570.396L1379.44 639.61L1449.17 679.867ZM1489.63 609.787L1529.59 540.574L1459.86 500.317L1419.9 569.53L1489.63 609.787ZM1530.09 539.708L1570.05 470.495L1500.32 430.238L1460.36 499.451L1530.09 539.708ZM1570.55 469.629L1610.51 400.415L1540.78 360.158L1500.82 429.372L1570.55 469.629ZM1611.01 399.549L1650.97 330.336L1581.24 290.079L1541.28 359.292L1611.01 399.549ZM1651.47 329.47L1691.43 260.257L1621.7 219.999L1581.74 289.213L1651.47 329.47ZM1691.93 259.391L1731.89 190.177L1662.16 149.92L1622.2 219.133L1691.93 259.391ZM1732.39 189.311L1772.35 120.098L1702.62 79.8407L1662.66 149.054L1732.39 189.311ZM1632.03 39.0836L1701.76 79.3407L1661.8 148.554L1592.07 108.297L1632.03 39.0836ZM1591.57 109.163L1661.3 149.42L1621.34 218.633L1551.61 178.376L1591.57 109.163ZM1551.11 179.242L1620.84 219.499L1580.88 288.713L1511.15 248.456L1551.11 179.242ZM1510.65 249.322L1580.38 289.579L1540.42 358.792L1470.69 318.535L1510.65 249.322ZM1470.19 319.401L1539.92 359.658L1499.96 428.872L1430.23 388.615L1470.19 319.401ZM1429.73 389.481L1499.46 429.738L1459.5 498.951L1389.77 458.694L1429.73 389.481ZM1389.27 459.56L1459 499.817L1419.04 569.03L1349.31 528.773L1389.27 459.56ZM1348.81 529.639L1418.54 569.896L1378.58 639.11L1308.85 598.853L1348.81 529.639ZM1308.35 599.719L1378.08 639.976L1338.12 709.189L1268.39 668.932L1308.35 599.719ZM1267.89 669.798L1337.62 710.055L1297.65 779.269L1227.93 739.011L1267.89 669.798ZM1227.43 739.877L1297.15 780.135L1257.19 849.348L1187.47 809.091L1227.43 739.877ZM1186.97 809.957L1256.69 850.214L1216.73 919.427L1147.01 879.17L1186.97 809.957ZM1146.51 880.036L1216.23 920.293L1176.27 989.507L1106.55 949.249L1146.51 880.036ZM1106.05 950.116L1175.77 990.373L1135.81 1059.59L1066.09 1019.33L1106.05 950.116ZM1065.22 1018.83L1105.18 949.616L1035.45 909.359L995.493 978.572L1065.22 1018.83ZM1105.68 948.749L1145.64 879.536L1075.91 839.279L1035.95 908.493L1105.68 948.749ZM1146.14 878.67L1186.1 809.457L1116.37 769.2L1076.41 838.413L1146.14 878.67ZM1186.6 808.591L1226.56 739.377L1156.83 699.12L1116.87 768.334L1186.6 808.591ZM1227.06 738.511L1267.02 669.298L1197.29 629.041L1157.33 698.254L1227.06 738.511ZM1267.52 668.432L1307.48 599.219L1237.76 558.962L1197.79 628.175L1267.52 668.432ZM1307.98 598.353L1347.94 529.139L1278.22 488.882L1238.26 558.096L1307.98 598.353ZM1348.44 528.273L1388.4 459.06L1318.68 418.803L1278.72 488.016L1348.44 528.273ZM1388.9 458.194L1428.86 388.981L1359.14 348.724L1319.18 417.937L1388.9 458.194ZM1429.36 388.115L1469.32 318.901L1399.6 278.644L1359.64 347.858L1429.36 388.115ZM1469.82 318.035L1509.78 248.822L1440.06 208.565L1400.1 277.778L1469.82 318.035ZM1510.28 247.956L1550.24 178.742L1480.52 138.485L1440.56 207.699L1510.28 247.956ZM1550.74 177.876L1590.7 108.663L1520.98 68.406L1481.02 137.619L1550.74 177.876ZM1591.2 107.797L1631.16 38.5836L1561.44 -1.67338L1521.48 67.54L1591.2 107.797ZM1034.59 908.859L994.627 978.072L924.9 937.815L964.86 868.601L1034.59 908.859ZM1075.05 838.779L1035.09 907.993L965.36 867.735L1005.32 798.522L1075.05 838.779ZM1115.51 768.7L1075.55 837.913L1005.82 797.656L1045.78 728.443L1115.51 768.7ZM1155.97 698.62L1116.01 767.834L1046.28 727.577L1086.24 658.363L1155.97 698.62ZM1196.43 628.541L1156.47 697.754L1086.74 657.497L1126.7 588.284L1196.43 628.541ZM1236.89 558.462L1196.93 627.675L1127.2 587.418L1167.16 518.205L1236.89 558.462ZM1277.35 488.382L1237.39 557.596L1167.66 517.339L1207.62 448.125L1277.35 488.382ZM1317.81 418.303L1277.85 487.516L1208.12 447.259L1248.08 378.046L1317.81 418.303ZM1358.27 348.224L1318.31 417.437L1248.58 377.18L1288.54 307.966L1358.27 348.224ZM1398.73 278.144L1358.77 347.358L1289.04 307.1L1329 237.887L1398.73 278.144ZM1439.19 208.065L1399.23 277.278L1329.5 237.021L1369.46 167.808L1439.19 208.065ZM1479.65 137.985L1439.69 207.199L1369.96 166.942L1409.92 97.7283L1479.65 137.985ZM1520.11 67.906L1480.15 137.119L1410.42 96.8623L1450.38 27.6489L1520.11 67.906ZM1560.57 -2.17339L1520.61 67.04L1450.88 26.7829L1490.84 -42.4305L1560.57 -2.17339ZM1489.98 -42.9305L1420.25 -83.1876L1380.29 -13.9742L1450.02 26.2829L1489.98 -42.9305ZM1449.52 27.1489L1379.79 -13.1082L1339.83 56.1052L1409.56 96.3623L1449.52 27.1489ZM1409.06 97.2283L1339.33 56.9712L1299.37 126.185L1369.1 166.442L1409.06 97.2283ZM1368.6 167.308L1298.87 127.051L1258.91 196.264L1328.64 236.521L1368.6 167.308ZM1328.14 237.387L1258.41 197.13L1218.45 266.343L1288.18 306.6L1328.14 237.387ZM1287.68 307.466L1217.95 267.209L1177.99 336.423L1247.72 376.68L1287.68 307.466ZM1247.22 377.546L1177.49 337.289L1137.53 406.502L1207.26 446.759L1247.22 377.546ZM1206.76 447.625L1137.03 407.368L1097.07 476.581L1166.8 516.839L1206.76 447.625ZM1166.3 517.705L1096.57 477.447L1056.61 546.661L1126.34 586.918L1166.3 517.705ZM1125.84 587.784L1056.11 547.527L1016.15 616.74L1085.87 656.997L1125.84 587.784ZM1085.37 657.863L1015.65 617.606L975.687 686.82L1045.41 727.077L1085.37 657.863ZM1044.91 727.943L975.187 687.686L935.227 756.899L1004.95 797.156L1044.91 727.943ZM1004.45 798.022L934.727 757.765L894.767 826.978L964.494 867.235L1004.45 798.022ZM963.994 868.101L894.267 827.844L854.306 897.058L924.034 937.315L963.994 868.101ZM893.401 827.344L853.44 896.558L783.713 856.301L823.673 787.087L893.401 827.344ZM933.861 757.265L893.901 826.478L824.173 786.221L864.134 717.008L933.861 757.265ZM974.321 687.186L934.361 756.399L864.634 716.142L904.594 646.929L974.321 687.186ZM1014.78 617.106L974.821 686.32L905.094 646.063L945.054 576.849L1014.78 617.106ZM1055.24 547.027L1015.28 616.24L945.554 575.983L985.515 506.77L1055.24 547.027ZM1095.7 476.947L1055.74 546.161L986.015 505.904L1025.98 436.69L1095.7 476.947ZM1136.16 406.868L1096.2 476.081L1026.48 435.824L1066.44 366.611L1136.16 406.868ZM1176.62 336.789L1136.66 406.002L1066.94 365.745L1106.9 296.532L1176.62 336.789ZM1217.08 266.709L1177.12 335.923L1107.4 295.666L1147.36 226.452L1217.08 266.709ZM1257.54 196.63L1217.58 265.843L1147.86 225.586L1187.82 156.373L1257.54 196.63ZM1298 126.551L1258.04 195.764L1188.32 155.507L1228.28 86.2935L1298 126.551ZM1338.46 56.4712L1298.5 125.685L1228.78 85.4275L1268.74 16.2141L1338.46 56.4712ZM1378.92 -13.6082L1338.96 55.6052L1269.24 15.3481L1309.2 -53.8653L1378.92 -13.6082ZM1419.39 -83.6876L1379.42 -14.4742L1309.7 -54.7313L1349.66 -123.945L1419.39 -83.6876ZM1348.79 -124.445L1279.06 -164.702L1239.1 -95.4884L1308.83 -55.2313L1348.79 -124.445ZM1308.33 -54.3653L1238.6 -94.6223L1198.64 -25.4089L1268.37 14.8481L1308.33 -54.3653ZM1267.87 15.7141L1198.14 -24.5429L1158.18 44.6704L1227.91 84.9275L1267.87 15.7141ZM1227.41 85.7935L1157.68 45.5365L1117.72 114.75L1187.45 155.007L1227.41 85.7935ZM1186.95 155.873L1117.22 115.616L1077.26 184.829L1146.99 225.086L1186.95 155.873ZM1146.49 225.952L1076.76 185.695L1036.8 254.908L1106.53 295.166L1146.49 225.952ZM1106.03 296.032L1036.3 255.775L996.342 324.988L1066.07 365.245L1106.03 296.032ZM1065.57 366.111L995.842 325.854L955.882 395.067L1025.61 435.324L1065.57 366.111ZM1025.11 436.19L955.382 395.933L915.422 465.147L985.149 505.404L1025.11 436.19ZM984.649 506.27L914.922 466.013L874.961 535.226L944.688 575.483L984.649 506.27ZM944.188 576.349L874.461 536.092L834.501 605.306L904.228 645.563L944.188 576.349ZM903.728 646.429L834.001 606.172L794.04 675.385L863.768 715.642L903.728 646.429ZM863.268 716.508L793.54 676.251L753.58 745.464L823.307 785.721L863.268 716.508ZM822.807 786.587L753.08 746.33L713.12 815.544L782.847 855.801L822.807 786.587ZM752.214 745.83L712.254 815.044L642.526 774.786L682.487 705.573L752.214 745.83ZM792.674 675.751L752.714 744.964L682.987 704.707L722.947 635.494L792.674 675.751ZM833.135 605.672L793.174 674.885L723.447 634.628L763.407 565.414L833.135 605.672ZM873.595 535.592L833.635 604.806L763.907 564.548L803.868 495.335L873.595 535.592ZM914.055 465.513L874.095 534.726L804.368 494.469L844.328 425.256L914.055 465.513ZM954.516 395.433L914.555 464.647L844.828 424.39L884.789 355.176L954.516 395.433ZM994.976 325.354L955.016 394.567L885.289 354.31L925.249 285.097L994.976 325.354ZM1035.44 255.275L995.476 324.488L925.749 284.231L965.709 215.017L1035.44 255.275ZM1075.9 185.195L1035.94 254.408L966.209 214.151L1006.17 144.938L1075.9 185.195ZM1116.36 115.116L1076.4 184.329L1006.67 144.072L1046.63 74.8588L1116.36 115.116ZM1156.82 45.0365L1116.86 114.25L1047.13 73.9927L1087.09 4.7794L1156.82 45.0365ZM1197.28 -25.0429L1157.32 44.1704L1087.59 3.91338L1127.55 -65.3L1197.28 -25.0429ZM1237.74 -95.1223L1197.78 -25.9089L1128.05 -66.166L1168.01 -135.379L1237.74 -95.1223ZM1278.2 -165.202L1238.24 -95.9884L1168.51 -136.245L1208.47 -205.459L1278.2 -165.202ZM1207.61 -205.959L1137.88 -246.216L1097.92 -177.003L1167.64 -136.745L1207.61 -205.959ZM1167.14 -135.879L1097.42 -176.136L1057.46 -106.923L1127.18 -66.666L1167.14 -135.879ZM1126.68 -65.8L1056.96 -106.057L1017 -36.8437L1086.72 3.41335L1126.68 -65.8ZM1086.22 4.27938L1016.5 -35.9777L976.537 33.2357L1046.26 73.4927L1086.22 4.27938ZM1045.76 74.3587L976.037 34.1017L936.076 103.315L1005.8 143.572L1045.76 74.3587ZM1005.3 144.438L935.576 104.181L895.616 173.394L965.343 213.651L1005.3 144.438ZM964.843 214.517L895.116 174.26L855.156 243.474L924.883 283.731L964.843 214.517ZM924.383 284.597L854.656 244.34L814.695 313.553L884.422 353.81L924.383 284.597ZM883.922 354.676L814.195 314.419L774.235 383.633L843.962 423.89L883.922 354.676ZM843.462 424.756L773.735 384.499L733.775 453.712L803.502 493.969L843.462 424.756ZM803.002 494.835L733.275 454.578L693.314 523.791L763.041 564.048L803.002 494.835ZM762.541 564.914L692.814 524.657L652.854 593.871L722.581 634.128L762.541 564.914ZM722.081 634.994L652.354 594.737L612.394 663.95L682.121 704.207L722.081 634.994ZM681.621 705.073L611.894 664.816L571.933 734.029L641.66 774.286L681.621 705.073ZM611.027 664.316L571.067 733.529L501.34 693.272L541.3 624.059L611.027 664.316ZM651.488 594.237L611.527 663.45L541.8 623.193L581.761 553.98L651.488 594.237ZM691.948 524.157L651.988 593.371L582.261 553.114L622.221 483.9L691.948 524.157ZM732.409 454.078L692.448 523.291L622.721 483.034L662.681 413.821L732.409 454.078ZM772.869 383.999L732.909 453.212L663.181 412.955L703.142 343.741L772.869 383.999ZM813.329 313.919L773.369 383.133L703.642 342.875L743.602 273.662L813.329 313.919ZM853.79 243.84L813.829 313.053L744.102 272.796L784.062 203.583L853.79 243.84ZM894.25 173.76L854.29 242.974L784.562 202.717L824.523 133.503L894.25 173.76ZM934.71 103.681L894.75 172.894L825.023 132.637L864.983 63.424L934.71 103.681ZM975.171 33.6017L935.21 102.815L865.483 62.558L905.443 -6.6554L975.171 33.6017ZM1015.63 -36.4777L975.671 32.7357L905.943 -7.52143L945.904 -76.7348L1015.63 -36.4777ZM1056.09 -106.557L1016.13 -37.3437L946.404 -77.6008L986.364 -146.814L1056.09 -106.557ZM1096.55 -176.636L1056.59 -107.423L986.864 -147.68L1026.82 -216.894L1096.55 -176.636ZM1137.01 -246.716L1097.05 -177.503L1027.32 -217.76L1067.28 -286.973L1137.01 -246.716Z" fill="url(#paint1_radial_1_4)"/>
</g>
<defs>
<radialGradient id="paint0_radial_1_4" cx="0" cy="0" r="1" gradientUnits="userSpaceOnUse" gradientTransform="translate(306.542 228.635) rotate(57.4492) scale(477.542 456.178)">
<stop stop-color="#585858"/>
<stop offset="1" stop-color="#EFEFEF" stop-opacity="0"/>
</radialGradient>
<radialGradient id="paint1_radial_1_4" cx="0" cy="0" r="1" gradientUnits="userSpaceOnUse" gradientTransform="translate(1380.54 228.635) rotate(57.4492) scale(477.542 456.178)">
<stop stop-color="#D0D0D0"/>
<stop offset="1" stop-color="#EFEFEF" stop-opacity="0"/>
</radialGradient>
<clipPath id="clip0_1_4">
<rect width="1440" height="537" fill="white"/>
</clipPath>
</defs>
</svg>
