<svg width="510" height="147" viewBox="0 0 510 147" fill="none" xmlns="http://www.w3.org/2000/svg">
<path d="M510 9.94168V144.623C509.174 144.606 508.35 144.468 507.536 144.21C506.557 143.857 506.041 143.412 506.101 142.482C506.235 140.8 503.678 139.091 501.562 139.209C499.555 139.32 497.499 139.385 495.514 139.169C494.074 139.012 492.482 139.307 491.162 138.515C490.687 138.207 490.119 138.567 489.667 138.796C488.744 139.254 487.863 139.939 487.05 140.832C486.876 141.092 486.673 141.285 486.454 141.398C486.235 141.511 486.005 141.541 485.779 141.487C484.817 141.268 483.839 141.443 482.923 141.998C481.559 142.737 480.092 142.654 478.758 141.762C477.93 141.144 477.004 141.051 476.141 141.5C475.603 141.762 475.618 142.227 475.446 142.633C475.354 142.812 475.236 142.946 475.105 143.021C474.973 143.096 474.833 143.109 474.698 143.058C474.324 142.999 474.022 142.764 474.111 142.489C474.448 141.435 473.64 140.754 472.967 140.001C472.727 139.769 472.536 139.406 472.425 138.966C472.313 138.358 471.838 138.037 471.244 137.729C469.984 137.074 468.739 136.42 467.506 135.706C465.879 134.776 464.07 134.77 462.208 134.999C461.564 135.091 460.939 135.421 460.373 135.968C460.096 136.197 460.077 136.42 460.395 136.623C461.797 138.024 461.487 139.412 459.322 140.642C458.3 141.173 457.259 141.578 456.204 141.854C455.477 142.024 454.737 141.95 454.025 141.638C451.913 140.859 451.569 140.983 450.32 142.626C449.983 143.075 449.624 143.471 449.247 143.811C448.548 144.466 446.971 144.669 446.032 144.309C445.202 143.994 444.806 143.3 445.475 142.515C446.765 141.016 446.017 140.06 444.503 139.124C443.591 138.574 443.09 137.814 443.142 136.871C443.142 136.682 443.056 136.426 442.683 136.439C442.57 136.418 442.457 136.439 442.349 136.499C442.241 136.56 442.142 136.66 442.058 136.793C441.834 137.448 441.43 138.004 441.228 138.593C440.462 140.885 437.793 142.194 436.72 144.296C436.62 144.473 436.498 144.609 436.365 144.695C435.322 145.448 431.482 144.931 430.944 143.877C430.537 143.084 430.021 142.895 429.075 143.163C427.284 143.687 425.516 144.008 423.972 142.698C423.598 142.39 423.063 142.528 422.596 142.587C421.169 142.8 419.735 142.8 418.308 142.587C417.492 142.518 416.674 142.577 415.863 142.764C414.376 143.117 412.862 142.841 411.448 141.958C410.888 141.559 410.222 141.264 409.658 140.872C408.83 140.271 407.934 140.019 407.041 140.138C406.3 140.239 405.556 140.162 404.828 139.909C402.958 139.255 400.943 139.379 398.981 139.255C397.938 139.176 397.265 139.471 396.966 140.282C396.659 141.021 396.245 141.602 395.766 141.965C394.711 142.876 393.537 143.285 392.364 143.15C390.558 143.071 388.674 142.829 386.999 143.805C386.47 143.967 385.932 144.024 385.395 143.975C384.625 144.002 383.861 144.223 383.126 144.629C381.07 145.729 378.928 146.155 376.677 144.924C375.976 144.574 375.245 144.437 374.517 144.518C372.603 144.703 370.702 143.884 369.055 142.168C367.462 140.662 365.159 139.981 362.744 140.597C361.025 141.035 360.318 140.819 359.38 139.556C359.006 139.045 358.595 138.541 358.258 138.004C357.654 137.156 356.915 136.657 356.142 136.577L355.869 136.511C354.577 136.179 353.298 135.711 352.038 135.11C350.58 134.456 350.198 134.534 349.002 135.484C348.808 135.634 348.628 135.811 348.441 135.961L348.015 136.289C346.852 137.205 346.95 137.336 347.94 138.646L348.269 139.065C348.737 139.647 349.552 140.315 348.684 140.917C347.981 141.402 346.987 141.003 346.187 140.701C345.189 140.315 344.654 139.693 344.471 138.803C344.344 138.148 343.783 138.207 343.279 138.58C343.079 138.766 342.89 138.986 342.714 139.235C342.168 139.89 341.566 140.053 340.647 139.582C339.054 138.783 337.779 139.065 336.751 140.341C335.88 141.428 335.525 141.52 334.194 140.793C333.194 140.208 332.167 139.77 331.125 139.484C330.729 139.39 330.342 139.196 329.977 138.908L329.79 138.757C328.422 137.592 328.015 137.526 326.598 138.561L326.362 138.744C326.182 138.935 325.981 139.059 325.772 139.11C325.563 139.16 325.351 139.136 325.147 139.038C324.19 138.488 323.529 138.901 322.773 139.346C320.927 140.426 318.743 140.957 316.568 141.395C315.11 141.648 313.638 141.46 312.216 140.839C309.536 139.759 308.029 140.184 306.5 142.273C305.872 143.05 305.105 143.406 304.339 143.274C302.377 143.17 300.351 143.49 298.478 142.731C297.827 142.497 297.155 142.537 296.515 142.849C296.1 143.039 295.719 143.274 295.3 143.451C293.921 144.06 292.971 143.831 292.261 142.737C290.59 140.184 287.644 139.032 284.002 139.543C282.935 139.716 281.858 139.601 280.81 139.202C279.988 138.842 279.148 138.623 278.301 138.547C276.088 138.41 275.857 138.495 274.802 140.073C273.748 141.651 271.471 142.371 269.46 141.631C267.112 140.76 264.884 141.435 262.705 141.847C261.667 142.138 260.61 142.138 259.572 141.847C258.278 141.323 256.943 141.195 255.624 141.467C254.569 141.705 253.497 141.542 252.48 140.989C251.472 140.492 250.409 140.45 249.389 140.865C247.736 141.369 246.024 141.742 244.331 142.174C243.672 142.344 243 142.289 242.353 142.011C241.609 141.671 240.852 141.421 240.088 141.264C237.788 140.898 235.975 139.818 234.162 138.777C233.255 138.224 232.296 137.979 231.336 138.056C230.108 138.155 228.877 138.096 227.654 137.88C226.685 137.709 225.882 137.781 225.231 138.377C224.379 139.169 223.362 139.32 222.091 139.124C220.334 138.862 219.952 139.202 220.409 140.557C220.637 141.212 220.782 141.867 219.994 142.325C219.23 142.692 218.424 142.692 217.661 142.325L216.36 141.84C215.612 141.566 214.939 141.454 214.446 142.181C214.023 142.796 213.343 142.757 212.681 142.462C211.863 142.096 210.939 141.769 210.479 141.232C210.403 141.171 210.337 141.079 210.286 140.964C210.235 140.849 210.201 140.713 210.186 140.569C210.172 140.425 210.178 140.277 210.203 140.138C210.229 139.999 210.274 139.874 210.334 139.772C209.83 139.546 209.298 139.608 208.816 139.948C207.475 140.703 206.064 141.005 204.659 140.839C204.416 140.839 204.173 140.839 203.911 140.767C203.44 140.701 202.995 140.669 202.554 140.662C202.247 140.662 201.948 140.662 201.646 140.662C200.898 140.721 200.15 140.845 199.376 141.009C197.466 141.408 195.877 142.174 194.161 142.809C193.974 142.875 193.787 142.967 193.623 143.045C190.756 144.354 190.707 144.42 188.12 142.705C187.175 142.005 186.128 141.847 185.129 142.253C182.602 143.34 180.696 142.057 178.636 141.33C178.262 141.192 178.142 140.826 177.922 140.557C177.129 139.569 175.772 139.248 174.486 139.025C173.72 138.888 172.722 139.156 172.273 139.68C170.92 141.31 168.579 141.644 166.632 142.476C165.611 142.914 164.564 143.274 163.641 143.85C161.837 144.916 159.912 145.193 158.033 144.656C156.357 144.228 154.655 144.18 152.972 144.512C151.824 144.755 150.664 144.772 149.514 144.564C148.112 144.263 146.785 144.793 145.461 144.695C144.138 144.597 143.106 143.674 141.596 143.85C140.861 143.819 140.129 143.696 139.405 143.484C137.82 143.209 137.36 143.346 136.766 144.544C136.452 145.199 136.037 145.199 135.353 145.081C134.358 144.859 133.423 144.544 132.485 144.204C130.728 143.549 130.037 143.968 130.272 145.435C130.485 146.744 130.171 146.954 128.728 146.463C127.799 146.204 126.88 145.844 125.977 145.382C124.058 144.258 122.061 143.597 120.04 143.418C118.562 143.287 117.081 143.287 115.603 143.418C113.524 143.543 111.404 144.453 109.27 143.497C108.638 143.209 107.95 143.497 107.281 143.615C105.225 144.066 104.638 143.615 105 141.985C105.221 140.976 103.442 138.816 102.26 138.711C102.007 138.701 101.754 138.763 101.513 138.894C101.253 139.082 100.975 139.173 100.694 139.163C100.414 139.153 100.137 139.041 99.8826 138.836C99.4003 138.436 98.7611 138.502 98.1442 138.502C96.7049 138.502 96.432 138.777 96.7124 139.863C96.7535 140.02 96.8246 140.171 96.8732 140.335C97.4863 142.299 96.2526 143.228 93.774 142.705C93.4264 142.62 93.0264 142.515 92.989 142.246C92.8357 141.094 91.774 140.079 92.3161 138.796C92.7946 137.664 91.9759 136.957 90.5328 137.29C88.6935 137.716 86.7346 137.762 84.9776 138.417C84.657 138.539 84.3324 138.627 84.0056 138.678C82.6859 138.921 82.0766 138.633 81.7214 137.618C81.0896 135.811 79.4148 135.163 77.2914 135.955C76.5205 136.249 75.7383 136.444 74.9512 136.538C73.9112 136.623 72.8796 136.907 71.8745 137.382C71.0707 137.808 70.3791 137.893 69.8221 137.114C69.6895 136.917 69.533 136.776 69.3646 136.701C69.1962 136.626 69.0202 136.62 68.8501 136.682C68.3529 136.813 68.4165 137.179 68.4127 137.493C68.4356 137.817 68.4456 138.143 68.4426 138.469C68.3641 139.228 67.9903 139.811 66.9473 139.988C66.2511 140.065 65.5643 140.31 64.9061 140.714C63.4444 141.716 61.7621 141.657 60.0686 141.232C58.4387 140.832 56.8199 140.446 56.3302 138.829C56.1246 138.142 55.1638 137.788 54.2965 137.565C53.1974 137.29 52.2142 137.52 51.9563 138.364C51.2348 140.728 48.8198 141.219 46.401 141.638C44.6066 141.939 42.9206 142.62 41.0103 142.548C40.3385 142.581 39.6795 142.876 39.0812 143.412C38.83 143.616 38.5563 143.721 38.2794 143.721C38.0024 143.721 37.7287 143.616 37.4775 143.412C36.1316 142.476 34.4307 142.462 32.8082 142.489C29.9782 142.528 28.4231 141.873 27.3352 139.935C26.2473 137.997 26.0679 137.814 23.5781 138.561C21.3575 139.215 19.5032 139.503 17.6864 137.978C16.873 137.467 15.9926 137.381 15.1517 137.729C13.9668 138.139 12.754 138.245 11.5517 138.043C11.281 137.984 11.0073 137.984 10.7367 138.043C9.53225 138.457 8.28563 138.266 7.14035 137.493C6.5614 137.214 5.95688 137.137 5.36086 137.264C4.25626 137.474 3.13881 137.251 2.08976 136.61C1.59981 136.304 1.08002 136.173 0.56076 136.223H0V10.6684C0.408057 10.7897 0.802832 11.0217 1.17012 11.3558C1.34937 11.4786 1.54068 11.5382 1.73312 11.5315C1.92555 11.5247 2.11533 11.4517 2.29164 11.3165C2.71782 10.9761 2.54959 10.6618 2.29164 10.2756C1.07292 8.66505 1.07292 8.5996 2.57202 7.10038C3.22296 6.53235 3.82358 5.80242 4.35523 4.93334C5.34965 3.02167 7.574 2.56337 9.78713 2.12473C9.9685 2.05735 10.1571 2.08337 10.3303 2.19953C10.5034 2.3157 10.6536 2.51705 10.7629 2.77941C11.2046 3.43776 11.7605 3.81487 12.3402 3.84934C12.9199 3.88382 13.4892 3.57365 13.9555 2.96929C14.6358 2.02655 15.5144 1.92837 16.6396 1.84326C17.6252 1.70104 18.6155 1.98898 19.5219 2.68127C20.6173 3.49963 22.1388 3.99058 23.4846 4.58634C23.9452 4.71315 24.4161 4.66177 24.8641 4.43578C25.5445 4.1739 26.2099 3.89899 26.909 3.66985C28.4268 3.19848 28.509 3.22461 29.0698 4.43578C29.3185 4.9615 29.668 5.3106 30.053 5.4178C31.0773 5.8237 31.7091 5.65352 32.1316 4.80244C32.7671 3.49307 32.7708 3.49306 34.4008 3.55852C35.572 3.67474 36.7454 3.41284 37.8625 2.78596C38.8687 2.22384 39.9268 2.00167 40.9803 2.13128C43.1038 2.31459 45.1786 2.66819 46.9618 3.66985C47.8656 4.22408 48.8154 4.51379 49.7731 4.52744C50.6478 4.52744 50.9843 4.92027 50.7637 5.60768C50.3301 6.91705 51.3843 7.67647 52.4348 8.38353L52.846 8.66508C53.3548 8.93459 53.8951 8.96387 54.4124 8.75011C55.418 8.37228 56.4664 8.5697 57.4031 9.31321C57.6642 9.5405 57.9424 9.70141 58.2293 9.79111C59.6387 10.1512 60.364 10.832 60.263 12.0628C60.192 12.9728 61.0967 13.3133 61.9976 13.3722C63.3547 13.4835 64.7453 13.5097 66.1099 13.3722C67.2314 13.2805 67.8893 12.4164 68.7753 11.9254C70.1698 11.1463 70.1399 11.0808 71.5305 11.7552C72.0292 12.0226 72.5495 12.1442 73.0708 12.1152C74.4315 12.0235 75.8297 12.0366 77.1494 11.801C78.8351 11.4523 80.5338 11.3362 82.2298 11.454C83.1757 11.5522 83.7252 11.3493 83.8411 10.4458C83.8411 10.3803 83.8411 10.3148 83.871 10.2625C84.0579 9.11677 84.2972 9.14954 85.9421 8.99242C88.4132 8.75019 90.5515 8.10204 91.4375 5.95468C92.0095 4.56676 92.4581 4.47504 94.1628 5.0708C94.6053 5.29733 95.0679 5.37943 95.5273 5.31303C97.1872 4.78928 98.4395 5.52907 99.7069 6.13138C100.522 6.52419 101.202 7.06111 101.984 7.51938C102.309 7.77397 102.656 7.93106 103.012 7.98418C104.47 7.48008 105.718 8.32459 107.075 8.27876C107.315 8.23233 107.549 8.12424 107.771 7.95797C110.327 6.41243 113.022 5.68937 115.726 5.8237C117.016 5.87607 118.32 5.70586 119.621 5.66658C120.818 5.54627 122.019 5.72486 123.188 6.19691C124.432 6.8114 125.759 6.67067 126.952 5.79757C128.058 4.98863 129.25 4.60673 130.448 4.67801C131.805 4.67801 132.982 3.8597 134.437 4.07575C134.852 4.13467 135.151 3.79424 135.184 3.42107C135.191 3.03661 135.227 2.65543 135.293 2.2884C135.446 1.7712 135.932 1.43077 136.597 1.39149C137.263 1.35221 137.51 1.77776 137.622 2.22295C137.996 3.80728 139.117 4.84169 141.136 5.26068C141.389 5.31551 141.64 5.40975 141.883 5.54223C144.294 6.75686 146.816 7.14806 149.312 6.69448C149.987 6.61123 150.665 6.67717 151.33 6.89084C153.002 7.36875 154.676 7.84018 156.34 8.33774C157.461 8.67163 158.321 9.19537 158.669 10.2167C159.017 11.238 159.417 11.526 160.729 11.2576C162.291 10.9761 163.652 10.9957 164.979 11.8272C165.889 12.2424 166.837 12.3182 167.764 12.0497C169.041 11.829 170.328 11.8884 171.596 12.2265C173.305 12.5997 174.18 12.1676 174.243 10.8451C174.292 9.84348 174.266 8.83527 175.48 8.22641C176.882 7.532 178.343 7.28147 179.795 7.48662C182.444 7.87082 185.111 7.346 187.645 5.94158C188.31 5.52919 189.036 5.52919 189.701 5.94158C190.382 6.39331 190.412 6.94977 190.045 7.55862C189.769 8.01035 189.01 8.44248 189.671 8.98587C190.333 9.52925 191.07 9.07752 191.772 8.90731C193.858 8.42939 195.761 7.46039 198.038 7.44075C198.58 7.44075 199.13 7.17234 199.302 6.72061C199.81 5.41125 200.872 4.21977 201.025 2.75328C201.238 0.691029 202.386 0.213117 205.01 0.304773C207.178 0.383335 209.044 1.29985 211.171 1.40459C211.536 1.46024 211.894 1.62173 212.229 1.8825C214.15 3.19186 216.341 4.2263 218.405 5.3589C219.859 6.15107 221.302 6.99561 223.298 6.66827C224.102 6.53078 225.029 6.74028 225.418 7.40806C226.308 8.94656 227.979 8.76979 229.463 8.46209C231.078 8.15544 232.708 8.15544 234.323 8.46209C234.523 8.45717 234.722 8.49012 234.917 8.56031C236.413 9.4965 238.08 9.35902 239.777 9.13643C241.303 8.92693 242.581 9.5881 243.852 10.0595C245.389 10.6356 246.701 10.7142 247.987 9.72566C248.712 9.20961 249.505 9.04888 250.278 9.26078C251.689 9.63536 253.131 9.34153 254.454 8.40974C256.234 7.19858 258.294 6.58969 260.473 6.07904C261.497 5.8368 262.522 6.00699 263.524 5.88915C265.8 5.64692 267.92 5.67315 269.905 6.83194C270.86 7.24259 271.835 7.48601 272.817 7.55862C274.384 7.8205 275.883 8.10197 276.877 9.24112C277.256 9.54613 277.66 9.7471 278.073 9.83691C278.481 9.96784 278.888 10.0857 279.3 10.197C281.221 10.7408 283.166 10.9927 285.113 10.9499C285.692 10.9499 286.272 10.8779 286.862 10.7928C287.4 10.7828 287.927 10.535 288.395 10.0726C288.851 9.50955 289.517 9.41789 290.313 9.32623C293.397 8.97271 296.436 8.67159 299.263 7.31639C301.169 6.36975 303.175 6.21511 305.121 6.8647C305.513 7.0108 305.913 7.08319 306.313 7.08072C308.818 7.02834 311.102 7.73541 313.416 8.31808C314.358 8.55376 314.822 9.02513 314.874 9.86967C314.968 11.31 315.401 11.5064 317.005 10.9434C317.713 10.6449 318.443 10.5389 319.17 10.6291C319.371 10.6717 319.575 10.6607 319.775 10.5964C322.575 9.31973 325.573 10.3018 328.437 10.2756C330.331 10.3663 332.216 10.7696 334.067 11.4802L334.875 11.7421C336.378 12.249 337.924 12.2356 339.424 11.7027C340.172 11.4343 340.875 11.0873 341.619 10.8124C342.74 10.4065 343.428 9.75179 343.862 8.84833C344.699 7.10687 345.652 6.88428 347.813 7.69608C349.555 8.31633 351.317 8.75357 353.088 9.00545C354.509 9.23458 355.526 9.60122 355.97 10.7338C356.24 11.3885 356.913 11.7486 357.746 11.9581C359.339 12.3509 359.675 12.2789 360.871 11.1594C361.035 10.9068 361.237 10.7432 361.453 10.6886C361.669 10.6339 361.889 10.6906 362.086 10.8517C362.236 10.9568 362.389 11.0401 362.546 11.1005C363.032 11.4802 363.496 11.8861 364.004 12.2462C364.386 12.583 364.809 12.7507 365.237 12.7347C365.665 12.7187 366.083 12.5195 366.457 12.1545C366.591 12.0367 366.673 11.8795 366.801 11.7552C369.163 9.37866 371.305 8.48175 375.257 8.23952C375.946 8.16655 376.626 7.92186 377.276 7.51283C377.626 7.29762 377.998 7.21037 378.368 7.25654C378.738 7.3027 379.099 7.48125 379.429 7.78119L380.005 8.29842C380.633 8.8549 381.283 9.39174 381.93 9.93512C382.801 10.6586 383.791 10.8141 384.722 10.3738C385.682 9.89348 386.687 9.74915 387.678 9.94911C388.67 10.1491 389.63 10.6893 390.502 11.5391C391.747 12.7044 393.306 13.3853 394.79 14.2037C396.274 15.022 397.829 14.4132 397.983 12.9663C398.01 12.7448 397.993 12.5133 397.934 12.3116C397.811 11.9319 397.609 11.5653 397.601 11.1856C397.601 10.9499 397.669 10.7077 397.889 10.4523C398.514 9.77185 399.215 9.33628 399.945 9.17567C400.691 8.95447 401.414 8.5489 402.095 7.97108C403.362 6.98905 404.506 6.89741 405.65 7.90562C406.611 8.75671 407.654 8.9007 408.932 8.84178C410.159 8.7168 411.389 9.01262 412.551 9.71255C414.207 10.8124 415.123 10.7928 416.933 9.77801C417.733 9.32806 418.588 9.26695 419.407 9.60123C421.081 10.2035 422.82 9.89507 424.391 8.71742C425.881 7.43656 427.427 6.36814 429.015 5.52257C430.57 4.69767 431.535 4.75007 432.496 5.95468C433.456 7.1593 434.454 7.26403 435.965 7.00216C436.985 6.84842 438.011 6.86152 439.03 7.0414C439.568 7.16642 440.113 7.15323 440.649 7.00216C441.976 6.49805 443.165 6.58315 444.04 7.40151C444.574 7.40151 444.679 7.2247 444.817 7.03485C445.438 6.16412 445.939 6.00699 446.855 6.54383C447.771 7.08067 448.458 7.7485 449.752 7.3295C451.045 6.9105 452.059 6.18378 452.537 5.09046C452.941 4.16736 453.797 3.64361 454.851 3.12641C456.649 2.28187 458.406 1.54211 460.597 1.67959C461.467 1.67662 462.335 1.80584 463.192 2.06583C463.631 2.27496 464.082 2.39146 464.537 2.41283C467.087 2.24261 468.713 3.49959 470.395 4.69111C470.7 4.93863 471.015 5.14442 471.337 5.30655C472.384 5.75829 473.371 5.40471 473.3 4.43578C473.192 2.94965 474.545 2.47173 475.708 1.89561C476.063 1.66948 476.441 1.57096 476.819 1.60583C477.196 1.64069 477.566 1.80827 477.906 2.0986C478.466 2.55026 479.077 2.77409 479.693 2.75328C481.255 2.91695 482.56 3.40796 483.274 4.63877C483.727 5.41784 484.56 5.74518 485.633 5.62079C487.685 5.3851 489.719 5.96774 491.779 5.67314C492.418 5.63736 493.055 5.83352 493.648 6.24926C494.566 6.83678 495.564 6.92577 496.512 6.50459C496.754 6.38061 497.009 6.34274 497.26 6.39327C498.355 7.12651 500.082 7.20513 500.804 8.24607C502.77 11.0808 505.163 10.8648 509.166 10.1053C509.45 10.0988 509.727 10.0202 510 9.94168Z" fill="#D4E4FF"/>
<path d="M510 10.7288V121.506C509.814 121.584 509.632 121.686 509.454 121.812C508.748 122.256 507.973 122.235 507.275 121.753C506.2 121.176 505.091 120.809 503.97 120.659C503.665 120.538 503.346 120.576 503.054 120.769C502.845 121.01 503.076 121.225 503.289 121.421C503.716 121.786 504.161 122.151 504.594 122.509C505.028 122.868 505.409 123.161 505.761 123.5C506.232 123.962 506.759 124.464 506.359 125.057C505.959 125.65 505.02 125.617 504.209 125.63C503.798 125.63 503.387 125.63 502.979 125.591C501.817 125.337 500.983 124.842 500.542 124.041C500.101 123.239 499.544 123.122 498.844 123.865C498.044 124.718 496.171 124.334 495.48 125.285C494.586 126.02 493.588 126.283 492.609 126.041C492.476 126.001 492.341 126.001 492.209 126.041C489.79 127.246 486.407 127.344 484.597 129.234C483.614 130.257 482.32 130.661 480.556 130.453C479.016 130.264 477.905 130.674 477.255 131.691C476.803 132.381 476.051 132.714 474.855 132.779C472.948 132.877 471.068 133.17 469.169 133.365C467.838 133.502 467.632 133.43 467.299 132.505C466.967 131.58 466.077 130.602 466.38 129.501C466.529 128.967 466.006 128.543 465.258 128.478C464.317 128.424 463.394 128.024 462.548 127.305C461.502 126.589 460.38 126.276 459.258 126.386H455.766C454.969 126.216 454.163 126.185 453.362 126.295C451.946 126.412 450.712 126.758 450.704 127.976C450.704 128.257 450.704 128.569 450.245 128.687C449.843 128.751 449.44 128.599 449.089 128.25C448.383 127.846 448.207 127.233 447.841 126.693C446.719 125.031 445.545 124.627 443.149 125.148C441.003 125.604 439.141 126.38 437.859 127.683C437.114 128.381 436.256 128.627 435.422 128.38C435.048 128.302 434.614 128.263 434.207 128.25C431.848 128.159 430.147 127.533 429.634 125.793C429.47 125.233 428.887 124.738 428.102 124.529C426.326 124.06 424.531 123.519 422.599 124.19C421.467 124.509 420.316 124.579 419.174 124.399C416.551 124.2 413.924 124.418 411.323 125.051C410.394 125.288 409.451 125.301 408.52 125.09C406.872 124.683 405.196 124.791 403.57 125.409C402.74 125.711 401.9 125.914 401.054 126.015C400.202 126.139 399.794 125.95 399.787 125.292C399.787 124.327 399.697 124.308 398.441 124.588C396.194 125.042 393.979 125.882 391.827 127.097C390.394 127.917 388.922 128.508 387.427 128.863C385.711 129.299 384.063 129.886 382.392 130.407C380.926 130.893 379.446 131.235 377.958 131.43C376.339 131.623 374.739 132.139 373.188 132.968C372.026 133.581 370.84 134.049 369.64 134.369C368.625 134.631 367.624 135.043 366.649 135.6C365.287 136.314 363.862 136.592 362.443 136.421C360.245 136.291 358.054 136.187 355.849 136.232C354.727 136.232 353.561 136.317 352.409 136.434C350.933 136.606 349.45 136.463 347.994 136.011C347.352 135.813 346.719 135.528 346.102 135.157C344.648 134.229 343.047 134.287 341.616 135.32C341.06 135.854 340.434 136.123 339.799 136.102C339.491 136.074 339.183 136.174 338.902 136.395C337.852 137.327 336.551 137.184 335.19 136.825C334.117 136.596 333.037 136.483 331.956 136.487C330.932 136.441 330.42 136.767 330.36 137.464C330.353 137.557 330.34 137.649 330.322 137.738C330.257 138.105 330.126 138.427 329.949 138.657C329.587 139.016 329.171 139.179 328.756 139.126C327.997 139.22 327.239 138.938 326.569 138.311C326.466 138.206 326.376 138.066 326.304 137.901C326.176 137.623 326.116 137.27 326.135 136.917C326.225 135.731 325.761 134.616 325.466 133.463C324.636 133.424 324.935 134.258 324.143 134.193C323.739 133.984 323.922 133.691 323.937 133.424C323.952 133.157 323.81 132.922 323.32 132.811C321.72 132.427 320.819 131.573 320.277 130.518C320.098 130.166 319.937 129.801 319.739 129.456C319.622 129.146 319.47 128.881 319.293 128.677C319.116 128.473 318.916 128.335 318.707 128.27C317.997 128.022 317.642 128.589 317.077 128.68C315.901 128.939 314.735 129.32 313.585 129.82C312.415 130.251 312.09 130.87 312.307 131.697C312.524 132.525 312.815 133.352 313.054 134.186C313.22 134.614 313.354 135.076 313.454 135.561C313.567 136.474 313.383 136.604 312.075 136.728L310.654 136.897C309.436 137.034 308.509 136.715 307.851 136.011C307.555 135.698 307.267 135.359 307.013 135.047C305.929 133.626 304.396 132.518 302.325 131.788C301.26 131.41 300.766 130.902 300.37 130.022C299.914 129.019 300.037 128.289 300.546 127.416C300.942 126.712 301.147 125.898 300.418 125.09C299.491 125.741 299.585 126.823 298.475 127.279C297.488 127.69 296.347 127.931 295.308 128.27C292.272 129.312 292.265 129.312 290.497 127.364C290.149 126.973 289.784 126.631 289.405 126.341C288.803 125.891 288.519 125.409 288.751 124.796C288.833 124.581 289.031 124.327 288.56 124.203C288.25 124.11 287.932 124.178 287.644 124.399C286.392 125.611 284.653 126.654 284.736 128.309C284.739 128.503 284.714 128.695 284.665 128.869C284.429 129.807 284.003 130.172 282.665 130.172C279.449 130.172 276.234 130.413 273.016 130.283C271.495 130.167 269.98 129.88 268.481 129.423C267.183 129.012 265.87 128.753 264.552 128.647C262.832 128.576 262.159 128.902 261.673 130.003C261.61 130.181 261.554 130.366 261.505 130.557C260.866 132.512 260.17 132.85 257.307 132.805C255.542 132.805 253.755 132.753 252.073 133.339C251.108 133.623 250.12 133.554 249.172 133.137C245.93 131.972 242.648 131.178 239.347 130.759C237.011 130.427 235.982 131.41 236.865 132.935C237.455 133.932 238.177 134.89 238.809 135.887C239.085 136.317 239.343 136.754 239.34 137.243C239.336 137.731 239.213 138.09 238.476 138.24C237.74 138.389 237.295 138.239 237.063 137.725C236.9 137.502 236.723 137.312 236.536 137.158C235.844 137.809 235.134 137.712 234.214 137.418C232.345 136.825 230.584 136.115 228.607 135.652C227.362 135.335 226.094 135.425 224.868 135.92C222.984 136.73 221.038 137.01 219.103 136.747C217.032 136.452 214.953 137.127 213.081 138.702C212.187 139.458 211.346 140.24 210.464 141.009C210.406 141.051 210.35 141.099 210.296 141.152C209.668 141.68 209.01 142.24 208.052 141.38C207.944 141.297 207.827 141.253 207.709 141.25C206.673 141.542 205.612 141.316 204.647 140.598L204.202 140.318C203.831 140.099 203.431 140.067 203.05 140.227C202.891 140.316 202.727 140.381 202.561 140.422C202.259 140.491 201.954 140.491 201.652 140.422C201.278 140.364 200.905 140.234 200.564 140.123C199.682 139.823 199.032 139.334 198.718 138.67C198.404 138.005 198.116 137.418 197.817 136.793C197.443 135.998 196.744 135.379 195.671 134.975C194.295 134.454 192.8 134.043 192.306 132.851C192.243 132.701 191.839 132.629 191.715 132.473C191.48 132.127 191.179 131.949 190.872 131.975C190.565 132 190.275 132.227 190.059 132.609C189.267 132.166 189.611 131.691 189.685 131.261C189.85 130.355 189.454 129.664 188.426 129.019C186.762 127.97 185.274 126.797 183.711 125.67C183.314 125.432 182.961 125.013 182.687 124.458C182.048 122.978 180.646 122.138 178.433 121.734C176.42 121.296 174.386 121.226 172.365 121.525C171.858 121.548 171.355 121.693 170.87 121.955C169.7 122.881 168.272 122.802 166.941 122.314C165.071 121.623 162.828 121.662 161.004 120.822C160.249 120.529 159.462 120.608 158.731 121.05C157.023 121.992 155.235 122.415 153.445 122.301C150.69 122.118 149.007 123.167 148.028 124.51C146.286 126.895 143.302 128.511 141.018 130.544C140.222 131.254 139.407 131.951 138.585 132.648C138.304 132.952 137.98 133.115 137.65 133.118C137.295 133.046 137.328 132.837 137.235 132.675C136.764 131.841 136.45 131.769 135.556 132.323C135.201 132.544 134.902 132.811 134.592 133.053C133.847 133.614 133.033 133.838 132.225 133.704C131.495 133.61 130.76 133.693 130.042 133.952C129.388 134.186 128.734 134.499 128.079 133.887C127.704 133.703 127.307 133.703 126.932 133.887C125.904 134.118 124.89 134.501 123.9 135.033C122.479 135.887 121.821 135.737 120.161 135.105C117.361 134.056 114.554 132.916 111.126 133.209C109.906 133.349 108.683 133.091 107.518 132.447C106.303 131.791 105.062 131.291 103.806 130.948C103.431 130.78 103.048 130.684 102.662 130.661C99.8205 130.876 98.5083 129.456 97.5699 128.107C96.1344 126.054 94.2352 124.425 91.3641 123.272C90.1379 122.776 89.0425 122.099 87.7752 121.63C86.6985 121.226 85.1583 121.493 84.4442 120.522C84.1972 120.44 83.9435 120.44 83.6965 120.522C82.8345 120.901 81.9293 120.86 81.0796 120.404C80.6489 120.288 80.208 120.387 79.8085 120.691C79.2525 121.038 78.6793 121.295 78.0963 121.46C76.9299 121.727 76.186 121.571 75.442 120.874C73.7859 119.323 73.5279 119.271 70.8026 119.74C70.4063 119.811 70.01 119.896 69.6063 119.942C67.5015 120.17 66.0323 120.906 65.6061 122.392C65.0342 124.386 63.1014 125.35 60.3985 125.702C58.4096 125.963 56.7946 126.543 55.6656 127.716C55.2554 128.193 54.8789 128.753 54.5441 129.384C53.8898 130.433 53.2842 130.609 51.9271 129.957C51.4088 129.632 50.8416 129.632 50.3233 129.957C49.4598 130.544 48.5551 130.348 47.6765 130.035C46.8877 129.755 46.1213 129.436 45.3998 129.084C44.4421 128.645 43.4711 128.299 42.4913 128.048C41.4644 127.725 40.4102 127.778 39.3958 128.204C37.1528 129.13 34.5994 128.797 32.1657 128.68C30.4983 128.602 30.3338 128.595 30.0983 129.723C30.0705 129.907 30.048 130.094 30.031 130.283C29.9899 130.557 30.1619 130.896 29.7207 131.046C29.2272 131.218 28.7149 131.111 28.259 130.739C27.3804 129.873 26.0608 129.723 24.7112 129.514C22.4158 129.156 20.8381 128.009 19.182 126.986C18.7309 126.639 18.2613 126.371 17.7801 126.184C15.6417 125.533 14.0416 124.301 11.9855 123.578C11.0995 123.246 10.3779 122.718 9.31622 122.587C8.75545 122.516 8.24703 122.327 8.13861 121.897C8.0302 121.467 8.43769 121.206 8.96855 121.03C9.49941 120.854 10.2134 120.75 9.69754 120.144C9.32373 119.688 8.90005 119.372 8.45299 119.215C8.00594 119.059 7.54512 119.064 7.09932 119.231C6.08994 119.635 5.15907 120.111 4.19455 120.535C3.17021 120.782 2.88982 121.532 2.14587 121.975C1.69725 122.183 1.21873 122.372 0.803766 122.626C0.328982 122.9 0.0186923 123.18 0.934614 123.408C1.39444 123.519 1.23369 123.825 0.886012 123.93C0.587454 124.021 0.291738 124.138 0 124.282V21.8977C0.601891 21.8977 1.20378 21.8977 1.80567 21.9629L2.17951 21.7674C3.99053 20.6108 5.85722 19.7385 7.75729 19.1609C8.0788 19.0827 8.3704 18.9263 8.69938 18.8807C10.4201 18.6522 12.1277 18.1859 13.8061 17.4862C14.1293 17.3951 14.455 17.3342 14.7818 17.3037C15.3724 17.1669 15.9708 17.1669 16.5614 17.3037C18.9502 17.7924 18.954 17.7924 19.754 16.1764C20.326 14.795 21.6569 13.9218 23.6121 13.4787C25.0476 13.1528 26.4271 12.7554 27.773 12.2732C29.6002 11.7191 31.4481 11.3968 33.3022 11.3088C34.977 11.1654 35.9191 10.6571 36.3901 9.56888C36.504 9.33372 36.629 9.11574 36.764 8.91726C37.6201 7.52277 38.1621 7.30126 40.3828 7.41856C41.4744 7.48372 42.566 7.53586 43.6614 7.58799C44.4091 7.58799 45.1568 7.58799 45.3213 8.32433C45.4147 8.76744 46.1138 8.77389 46.6559 8.82602C47.7324 9.0262 48.8147 9.11543 49.8972 9.09321C50.7234 8.98243 51.6019 8.93031 52.4206 8.77392C53.3207 8.70386 54.1978 8.25682 54.9777 7.47066C56.0993 6.08269 58.2302 6.08271 59.5536 7.40551C60.2078 8.05714 60.7648 8.78041 61.5013 9.39945C62.7911 10.4746 63.7631 10.4486 65.1912 9.45164C66.051 8.84562 67.0604 8.36992 66.7838 7.3208C66.6454 6.82556 67.2511 6.66919 67.8716 6.85164C70.4138 7.66618 73.2438 7.98545 75.6102 9.09973C77.5019 9.98595 79.6964 10.403 81.8609 10.8461C82.2584 10.9664 82.6633 10.9927 83.0647 10.9243C83.3152 10.8266 83.5694 10.7419 83.8124 10.6702C85.6517 10.1945 87.7415 10.4551 89.5397 9.81651C91.1473 9.24959 92.5641 9.39295 93.4875 10.4681C94.9829 12.2601 97.1998 12.9574 99.9887 13.205C101.267 13.3223 102.49 13.6742 103.794 13.205C104.292 13.0356 107.339 13.798 107.664 14.1759C108.34 14.9709 109.443 15.1403 110.602 15.2902C111.75 15.4983 112.903 15.5983 114.057 15.5899C116.061 15.4885 118.065 15.7528 120.038 16.3785C120.79 16.6955 121.576 16.6641 122.318 16.2872C122.597 16.0573 122.913 16.0021 123.212 16.1308C124.057 16.8932 124.838 16.4632 125.653 16.1308C125.718 16.1007 125.785 16.0875 125.851 16.0917C128.068 16.222 130.296 16.3133 132.498 16.5283C133.085 16.587 133.545 16.9193 134.091 16.4501C134.33 16.2673 134.59 16.1873 134.85 16.2167C135.111 16.2462 135.363 16.3844 135.586 16.6196C136.226 17.1669 136.771 17.7729 137.418 18.3138C138.54 19.2456 139.93 19.5388 141.646 19.213C143.691 18.809 145.789 18.5614 147.882 18.3399C149.732 18.2054 151.56 17.5927 153.307 16.5218C154.652 15.4702 156.13 15.0436 157.598 15.2837C158.582 15.4833 159.575 15.0776 160.406 14.1368C161.662 12.4426 164.724 12.1363 166.664 13.4852C166.855 13.6155 167.004 13.7784 167.176 13.9283C168.148 14.7624 168.148 14.7624 168.937 13.785C169.726 12.8075 170.503 12.5339 172.16 12.8857C175.236 13.5374 178.283 14.2411 181.349 14.9188C182.646 15.1925 183.928 15.5704 185.334 15.1403C185.803 15.0563 186.276 15.0892 186.74 15.2381C187.756 15.4597 188.291 15.1012 188.609 14.4952C188.834 13.9734 189.084 13.4852 189.356 13.0356C190.418 11.5303 192.194 11.2175 194.179 12.195C195.245 12.7098 196.228 12.9443 197.263 12.195C197.613 11.9642 197.998 11.9642 198.347 12.195C198.691 12.41 198.86 12.8466 199.398 12.788C200.254 12.6642 201.29 12.5664 201.862 12.1754C204.221 10.5854 206.923 10.8265 209.712 11.2696C210.045 11.3152 210.374 11.3805 210.711 11.4196C210.85 11.4216 210.99 11.4085 211.129 11.3804C211.376 10.9699 210.83 10.807 210.527 10.6116C209.985 10.2532 209.361 9.9599 208.808 9.60802C208.254 9.25614 207.48 9.00196 207.847 8.34382C208.213 7.68567 209.488 7.34036 210.438 7.49675C211.298 7.63541 212.147 7.94142 212.969 8.40905C213.66 8.79351 214.329 9.19746 215.025 9.57541C216.039 10.1899 217.127 10.338 218.184 10.0055C219.498 9.63648 220.843 9.82877 222.105 10.5659C224.506 11.877 227.02 12.4459 229.534 12.2471C230.965 12.1884 232.218 11.8887 233.123 11.0807C233.362 10.8284 233.633 10.678 233.912 10.6418C234.191 10.6056 234.472 10.6844 234.73 10.8721C236.376 11.4206 238.057 11.585 239.728 11.3609C240.929 11.1874 242.136 11.4584 243.272 12.1559C244.644 13.0095 245.788 14.026 247.385 14.7233C248.38 15.2592 249.433 15.3907 250.462 15.1077C252.088 14.5538 253.923 14.2541 255.258 13.3353C256.302 12.732 257.38 12.3257 258.473 12.1233C259.395 11.9528 260.286 11.449 261.09 10.6441C262.585 8.97592 264.391 8.65009 267.071 9.48417C269.397 10.2292 271.747 10.7254 274.107 10.9699C274.987 11.1202 275.874 11.1202 276.754 10.9699C277.587 10.7553 278.428 10.6508 279.27 10.6571C280.392 10.6571 281.513 10.7354 282.635 10.7614C283.562 10.7614 284.504 10.9113 285.087 11.413L285.192 11.5172C285.738 12.0581 286.216 11.8952 286.911 11.7193C290.515 10.7679 293.988 10.6702 297.073 12.6055C297.775 13.0486 298.437 13.4787 299.106 12.5403C299.405 12.1168 300.108 12.2015 300.561 12.423C301.873 13.0746 303.484 13.1985 304.856 13.7263C305.356 13.9623 305.88 14.0002 306.389 13.8371C306.883 13.617 307.404 13.6601 307.884 13.9609C308.124 14.1536 308.386 14.2495 308.65 14.2416C308.914 14.2338 309.174 14.1222 309.409 13.9153C310.176 13.2636 311.062 13.407 311.955 13.8045C312.937 14.1807 313.884 14.7972 314.767 15.6356C315.078 16.0066 315.43 16.2617 315.8 16.3851C316.171 16.5084 316.552 16.4973 316.92 16.3524C317.731 16.1047 317.963 15.4727 317.63 14.6386C317.63 14.5995 317.574 14.5539 317.563 14.5148C317.436 14.0717 316.86 13.5699 317.634 13.2115C318.464 12.8401 319.129 13.2115 319.817 13.5829C320.961 14.1759 321.997 14.8341 322.995 15.5378C323.743 16.0852 324.244 15.9809 324.737 15.3488C325.963 13.7849 326.061 13.7524 328.543 14.2541C328.801 14.4731 329.084 14.5868 329.371 14.5868C329.658 14.5868 329.941 14.4731 330.199 14.2541C330.8 13.8827 331.416 13.5865 332.042 13.3679C333.164 13.1008 333.911 12.7163 334.042 11.9539C334.057 11.8227 334.057 11.6876 334.042 11.5564C333.99 10.9504 334.704 10.9569 335.373 11.1198C336.042 11.2827 336.308 11.6671 336.364 12.1103C336.387 12.2753 336.432 12.4291 336.495 12.5599C336.875 13.199 337.342 13.6607 337.852 13.9022C338.377 14.2817 338.962 14.3369 339.508 14.0586C340.349 13.5764 341.295 13.6937 342.252 13.7132C343.414 13.7523 344.581 13.7589 345.744 13.7589C346.656 13.8378 347.569 13.6641 348.45 13.2441C348.876 12.9859 349.327 12.8795 349.777 12.9313C350.652 13.0421 350.947 12.6902 351.273 12.2341C351.972 11.2827 352.42 11.2175 353.65 11.7714C354.086 11.9642 354.516 12.1992 354.936 12.4752C356.482 13.4006 358.103 13.8869 359.737 13.9153C361.232 13.9935 362.727 14.1499 364.178 14.4431C365.311 14.7488 366.47 14.5377 367.542 13.8306C369.382 12.5273 371.95 11.9669 374.189 11.0742C374.707 10.9043 375.238 10.9043 375.756 11.0742C377.412 11.4912 378.272 11.2501 379.068 10.1815C379.408 9.7188 379.659 9.24309 379.965 8.77392C380.056 8.63491 380.151 8.50442 380.249 8.38296C380.997 7.41203 381.349 7.35339 382.836 7.82256C384.829 8.47419 386.724 9.217 388.818 9.72527C388.88 9.73816 388.941 9.75781 389.001 9.78397C390.979 11.3609 393.816 11.1524 396.392 11.413C396.791 11.4565 397.187 11.537 397.581 11.6541C398.284 11.8836 398.967 12.2668 399.615 12.7945C401.357 14.1825 403.544 14.9579 406.187 15.1534C406.588 15.2314 406.993 15.2314 407.394 15.1534C408.718 14.5604 409.484 15.2577 410.591 15.5639C414.845 16.7368 419.189 17.9423 423.716 15.9484C425.228 15.3748 426.765 15.026 428.311 14.9058C430.838 14.6381 433.35 14.0369 435.825 13.1073C436.418 12.8745 436.983 12.4597 437.493 11.8822C438.24 11.0155 439.362 10.6897 440.794 10.7549C441.276 10.7549 441.754 10.807 442.233 10.8135C445.018 10.8526 447.818 11.1002 450.551 10.4942C450.999 10.3215 451.464 10.3215 451.912 10.4942C453.916 11.6346 456.177 11.7974 458.615 11.3543C459.363 11.2305 460.11 11.2175 460.836 11.0742C462.054 10.7459 463.3 10.8972 464.481 11.5172C465.426 11.9537 466.4 12.1728 467.378 12.1689C468.384 12.2601 468.641 12.0712 468.589 11.4196C468.436 9.46468 468.436 9.46469 471.27 9.79702C472.537 9.94038 473.311 9.4451 473.262 8.53282C473.18 6.90375 473.206 6.9559 475.374 6.3564C476.567 6.03059 477.617 5.77642 478.87 6.24559C480.477 6.84509 481.797 7.63355 482.649 8.75435C482.712 8.81239 482.765 8.89627 482.804 8.99847C482.843 9.10067 482.867 9.2181 482.874 9.34043C482.881 9.46277 482.871 9.58626 482.844 9.69997C482.817 9.81369 482.775 9.91411 482.721 9.99246C482.519 10.3965 482.246 10.7744 482.018 11.1654C481.7 11.7193 480.956 12.2015 481.319 12.8727C481.834 13.8436 482.066 14.9123 483.457 15.5378C484.848 16.1634 486.197 16.7889 487.569 17.3884C487.937 17.5445 488.313 17.6449 488.691 17.6882C489.246 17.8316 489.812 17.6959 490.325 17.2972C490.668 16.9192 490.429 16.5609 490.126 16.2351C489.753 15.8507 489.33 15.4792 488.9 15.1077C488.358 14.6451 488.526 14.2802 489.065 13.8632C489.812 13.2832 490.668 13.4526 491.528 13.6025C492.388 13.7524 492.713 14.2541 492.571 14.8015C492.362 15.6616 493.259 16.411 493.001 17.2842C492.912 17.5905 493.465 17.7208 493.902 17.6882C494.856 17.6166 495.805 17.5253 496.755 17.4341C497.405 17.3624 497.633 17.0105 497.76 16.6326C498.508 14.391 499.469 13.9023 503.282 14.189C505.215 14.3323 506.579 13.811 507.693 12.7945C508.49 12.0647 509.249 11.3935 510 10.7288Z" fill="white"/>
</svg>
