<svg width="21" height="21" viewBox="0 0 21 21" fill="none" xmlns="http://www.w3.org/2000/svg">
<mask id="mask0_1_163" style="mask-type:luminance" maskUnits="userSpaceOnUse" x="0" y="0" width="20" height="20">
<path fill-rule="evenodd" clip-rule="evenodd" d="M0 0H19.4768V19.477H0V0Z" fill="white"/>
</mask>
<g mask="url(#mask0_1_163)">
<path fill-rule="evenodd" clip-rule="evenodd" d="M9.73876 1.5C5.19576 1.5 1.49976 5.195 1.49976 9.738C1.49976 14.281 5.19576 17.977 9.73876 17.977C14.2808 17.977 17.9768 14.281 17.9768 9.738C17.9768 5.195 14.2808 1.5 9.73876 1.5M9.73876 19.477C4.36876 19.477 -0.000244141 15.108 -0.000244141 9.738C-0.000244141 4.368 4.36876 0 9.73876 0C15.1088 0 19.4768 4.368 19.4768 9.738C19.4768 15.108 15.1088 19.477 9.73876 19.477" fill="#454A6D"/>
</g>
<mask id="mask1_1_163" style="mask-type:luminance" maskUnits="userSpaceOnUse" x="15" y="15" width="6" height="6">
<path fill-rule="evenodd" clip-rule="evenodd" d="M15.24 15.707H20.264V20.7218H15.24V15.707Z" fill="white"/>
</mask>
<g mask="url(#mask1_1_163)">
<path fill-rule="evenodd" clip-rule="evenodd" d="M19.5142 20.7218C19.3232 20.7218 19.1312 20.6488 18.9842 20.5028L15.4602 16.9888C15.1672 16.6958 15.1662 16.2208 15.4592 15.9278C15.7512 15.6328 16.2262 15.6348 16.5202 15.9258L20.0442 19.4408C20.3372 19.7338 20.3382 20.2078 20.0452 20.5008C19.8992 20.6488 19.7062 20.7218 19.5142 20.7218" fill="#454A6D"/>
</g>
</svg>
