<svg width="193" height="53" viewBox="0 0 193 53" fill="none" xmlns="http://www.w3.org/2000/svg">
<path opacity="0.25" fill-rule="evenodd" clip-rule="evenodd" d="M167.154 51.1947C180.739 51.1947 191.751 40.1821 191.751 26.5974C191.751 13.0126 180.739 2 167.154 2C153.569 2 142.556 13.0126 142.556 26.5974C142.556 40.1821 153.569 51.1947 167.154 51.1947Z" stroke="white" stroke-width="2.10835"/>
<path d="M175.194 22.0496C175.08 21.9206 174.896 21.8881 174.745 21.9677C174.651 22.0171 174.474 22.082 174.265 22.1461C174.529 21.7846 174.742 21.3798 174.835 21.0159C174.876 20.8591 174.817 20.6938 174.688 20.6003C174.558 20.5076 174.386 20.5076 174.257 20.6003C174.054 20.7463 173.071 21.1851 172.45 21.3273C171.046 20.0627 169.413 19.9313 167.715 20.9511C166.334 21.78 166.034 23.4656 166.093 24.493C162.933 24.1801 160.969 22.4636 159.863 21.043C159.786 20.9433 159.661 20.8908 159.544 20.8985C159.421 20.9078 159.31 20.9781 159.247 21.087C158.724 21.9947 158.579 22.9982 158.829 23.9893C158.966 24.5301 159.205 25.0067 159.482 25.393C159.349 25.3258 159.22 25.2416 159.099 25.1411C158.988 25.0469 158.833 25.0291 158.701 25.0917C158.571 25.1558 158.487 25.2918 158.487 25.4409C158.487 27.1427 159.522 28.2783 160.489 28.8716C160.333 28.8523 160.17 28.8167 160.005 28.765C159.864 28.7209 159.711 28.765 159.613 28.8793C159.516 28.9929 159.492 29.1551 159.553 29.2934C160.096 30.5286 161.125 31.3784 162.398 31.6866C161.287 32.3579 159.799 32.687 158.436 32.5256C158.26 32.5001 158.092 32.6152 158.036 32.7898C157.98 32.9643 158.053 33.1559 158.209 33.2455C160.276 34.4391 162.144 34.8655 163.759 34.8655C166.109 34.8655 167.923 33.9632 169.027 33.2085C172.003 31.1768 173.858 27.529 173.6 24.2651C174.077 23.9028 174.79 23.2338 175.233 22.5146C175.324 22.3694 175.308 22.1778 175.194 22.0496Z" fill="white"/>
<path opacity="0.25" fill-rule="evenodd" clip-rule="evenodd" d="M96.8756 51.1947C110.46 51.1947 121.473 40.1821 121.473 26.5974C121.473 13.0126 110.46 2 96.8756 2C83.2908 2 72.2782 13.0126 72.2782 26.5974C72.2782 40.1821 83.2908 51.1947 96.8756 51.1947Z" stroke="white" stroke-width="2.10835"/>
<path d="M99.1149 20.3013H101.376C101.584 20.3013 101.752 20.1422 101.752 19.9462V17.816C101.752 17.62 101.584 17.4609 101.376 17.4609H99.1149C96.8301 17.4609 94.9703 19.2127 94.9703 21.3664V23.8517H92.3328C92.1249 23.8517 91.9561 24.0108 91.9561 24.2067V26.337C91.9561 26.533 92.1249 26.692 92.3328 26.692H94.9703V34.1479C94.9703 34.3439 95.1391 34.503 95.3471 34.503H97.6078C97.8157 34.503 97.9845 34.3439 97.9845 34.1479V26.692H100.622C100.784 26.692 100.928 26.5941 100.98 26.4492L101.733 24.3189C101.772 24.211 101.752 24.0917 101.681 23.9987C101.61 23.9064 101.497 23.8517 101.376 23.8517H97.9845V21.3664C97.9845 20.7792 98.4917 20.3013 99.1149 20.3013Z" fill="white"/>
<path opacity="0.25" fill-rule="evenodd" clip-rule="evenodd" d="M26.5974 51.1952C40.1821 51.1952 51.1947 40.1826 51.1947 26.5979C51.1947 13.0131 40.1821 2.00049 26.5974 2.00049C13.0126 2.00049 2 13.0131 2 26.5979C2 40.1826 13.0126 51.1952 26.5974 51.1952Z" stroke="white" stroke-width="2.10835"/>
<path d="M20.952 21.6314C22.1037 21.6314 23.0373 20.6978 23.0373 19.5462C23.0373 18.3945 22.1037 17.4609 20.952 17.4609C19.8004 17.4609 18.8668 18.3945 18.8668 19.5462C18.8668 20.6978 19.8004 21.6314 20.952 21.6314Z" fill="white"/>
<path d="M22.6897 23.0244H19.2144C19.0225 23.0244 18.8668 23.1801 18.8668 23.372V33.7981C18.8668 33.9899 19.0225 34.1456 19.2144 34.1456H22.6897C22.8816 34.1456 23.0373 33.9899 23.0373 33.7981V23.372C23.0373 23.1801 22.8816 23.0244 22.6897 23.0244Z" fill="white"/>
<path d="M33.0462 22.4457C31.5608 21.9369 29.7029 22.3838 28.5886 23.1853C28.5504 23.0358 28.4142 22.9246 28.2522 22.9246H24.7769C24.585 22.9246 24.4293 23.0803 24.4293 23.2721V33.6983C24.4293 33.8901 24.585 34.0458 24.7769 34.0458H28.2522C28.4441 34.0458 28.5998 33.8901 28.5998 33.6983V26.2054C29.1614 25.7216 29.885 25.5673 30.4772 25.8189C31.0513 26.0615 31.3801 26.6537 31.3801 27.4426V33.6983C31.3801 33.8901 31.5358 34.0458 31.7276 34.0458H35.203C35.3948 34.0458 35.5505 33.8901 35.5505 33.6983V26.7427C35.5109 23.8866 34.1673 22.8294 33.0462 22.4457Z" fill="white"/>
</svg>
